<svg width="59" height="53" viewBox="0 0 59 53" fill="none" xmlns="http://www.w3.org/2000/svg">
<g clip-path="url(#clip0_1_2482)">
<path d="M25.5282 3.92871C25.5757 3.92871 25.6454 3.98002 25.7183 4.0698C25.7848 4.14677 25.9464 4.39047 26.0795 4.60532C26.2125 4.82337 26.4058 5.14084 26.5104 5.30758C26.6149 5.47433 26.824 5.85593 26.973 6.15735C27.1219 6.45557 27.293 6.81793 27.3532 6.95902C27.4134 7.10012 27.5401 7.48171 27.6383 7.80879C27.7365 8.13587 27.8728 8.6265 27.9425 8.89906C28.0122 9.17163 28.1199 9.62698 28.1801 9.90917C28.2403 10.1914 28.3259 10.6371 28.3702 10.9032C28.4114 11.1662 28.4589 11.4644 28.4716 11.5606C28.4843 11.6568 28.5033 12.1186 28.5318 13.4365L29.4506 13.4558L29.6914 13.1094C29.8245 12.9202 30.2807 12.2436 30.7021 11.6087C31.1267 10.9738 31.5671 10.3228 31.678 10.1657C31.7889 10.0054 32.0424 9.66867 32.242 9.41213C32.4384 9.1556 32.695 8.83172 32.8091 8.69063C32.9263 8.54954 33.1798 8.25773 33.3731 8.03967C33.5695 7.82483 33.8832 7.50416 34.0765 7.32779C34.2666 7.15463 34.5517 6.90772 34.7101 6.78266C34.9002 6.63194 35.1537 6.47802 35.4705 6.31769C35.7304 6.18621 36.0725 6.0355 36.231 5.98419C36.3862 5.93289 36.6809 5.85913 36.8805 5.82065C37.191 5.75972 37.3209 5.75011 37.7518 5.76293C38.1985 5.77576 38.2904 5.78859 38.528 5.86555C38.6769 5.91685 38.8956 6.00664 39.0191 6.06757C39.1395 6.12849 39.3613 6.25355 39.5102 6.34334C39.6591 6.43313 39.9443 6.63194 40.1439 6.78586C40.3593 6.95261 40.6952 7.25724 40.9677 7.53943C41.2211 7.80238 41.5285 8.15511 41.652 8.32186C41.7724 8.48861 41.9404 8.73552 42.0196 8.867C42.0988 8.99847 42.2826 9.32235 42.4251 9.5885C42.5677 9.85145 42.7641 10.2555 42.8655 10.4864C42.9669 10.714 43.062 10.9385 43.0746 10.9834C43.0873 11.0283 43.1317 11.1341 43.1729 11.2239C43.2109 11.3105 43.2869 11.5061 43.3408 11.6568C43.3978 11.8075 43.4612 11.9999 43.4865 12.0897C43.5119 12.1763 43.5658 12.3495 43.6069 12.4745C43.6481 12.5964 43.702 12.7343 43.7242 12.7791C43.7463 12.824 43.8065 12.9074 43.9618 13.0677H42.9638L43.0905 12.9459C43.2014 12.8433 43.2204 12.808 43.2172 12.699C43.2172 12.6284 43.1792 12.3911 43.138 12.1699C43.0937 11.9486 43.0176 11.6376 42.9669 11.4804C42.9162 11.3201 42.8497 11.1277 42.8212 11.0475C42.7927 10.9674 42.7483 10.8583 42.7261 10.807C42.7008 10.7525 42.6089 10.5377 42.5202 10.326C42.4283 10.1144 42.2699 9.77449 42.1653 9.57247C42.0576 9.37045 41.8707 9.04016 41.7471 8.83814C41.6077 8.61046 41.3954 8.33148 41.1863 8.1006C41.0025 7.89537 40.6889 7.57791 40.4893 7.39192C40.2896 7.20594 40.0425 6.98788 39.938 6.90772C39.8334 6.82434 39.6116 6.67042 39.4469 6.55819C39.2821 6.44916 39.0223 6.29524 38.867 6.21828C38.715 6.14132 38.5154 6.04833 38.4235 6.01305C38.3348 5.97778 38.1288 5.93289 37.9736 5.91685C37.8151 5.89761 37.5522 5.8912 37.3874 5.90403C37.2227 5.91365 36.9502 5.95213 36.7854 5.9874C36.6207 6.02267 36.3799 6.09322 36.2531 6.14453C36.1296 6.19583 35.9205 6.28883 35.7937 6.35296C35.6702 6.41709 35.48 6.52291 35.3755 6.58384C35.2709 6.64798 35.1125 6.757 35.027 6.82434C34.9383 6.89168 34.6784 7.13218 34.444 7.35344C34.2095 7.57791 33.8452 7.94668 33.6361 8.17756C33.4238 8.40524 33.1228 8.76759 32.9644 8.97923C32.8059 9.19087 32.4479 9.71035 32.1691 10.1336C31.8903 10.5569 31.4689 11.2271 31.2344 11.6247C30.9968 12.0224 30.6831 12.5964 30.531 12.8978C30.3821 13.2024 30.2617 13.4846 30.2649 13.5231C30.2712 13.5776 30.3124 13.6033 30.4487 13.6482C30.5437 13.677 30.8162 13.7572 31.0507 13.8245C31.2851 13.8887 31.6336 14.0041 31.8269 14.0779C32.017 14.1516 32.3687 14.3055 32.6032 14.421C32.8376 14.5332 33.1861 14.7192 33.3794 14.8282C33.5695 14.9404 33.9687 15.1938 34.2666 15.3926C34.5612 15.5914 34.9763 15.8864 35.1854 16.05C35.3945 16.2135 35.7145 16.4797 35.8983 16.64C36.0789 16.8003 36.4369 17.1274 36.6872 17.3647C36.9407 17.602 37.324 17.9996 37.5395 18.2465C37.7581 18.4934 38.0718 18.8686 38.2397 19.0803C38.4076 19.2919 38.6833 19.6607 38.8512 19.898C39.0191 20.1353 39.2789 20.5329 39.431 20.7798C39.5799 21.0267 39.8239 21.466 39.9696 21.7578C40.1122 22.0497 40.296 22.4377 40.372 22.6237C40.4512 22.8096 40.5938 23.1848 40.692 23.4574C40.7902 23.73 40.9138 24.1051 40.9645 24.2911C41.0184 24.4771 41.1166 24.8812 41.1863 25.189C41.256 25.4968 41.3289 25.8784 41.3447 26.0388C41.3637 26.1959 41.3859 26.4236 41.3954 26.5422C41.4113 26.7507 41.4176 26.7667 41.5633 26.911C41.6489 26.9976 41.7344 27.1194 41.7566 27.1932C41.7851 27.2765 41.7946 27.3952 41.7819 27.5299C41.7724 27.6453 41.7122 27.9051 41.6457 28.1071C41.5823 28.3091 41.3954 28.8158 41.2307 29.2294C41.0659 29.6431 40.8219 30.2139 40.6825 30.4961C40.5463 30.7782 40.3118 31.2176 40.1597 31.4741C40.0077 31.7306 39.7764 32.1058 39.6433 32.3078C39.5071 32.5098 39.3011 32.8049 39.1807 32.9652C39.0603 33.1223 38.8385 33.3756 38.6896 33.5199C38.5407 33.6675 38.2239 33.9561 37.9894 34.1645C37.7549 34.3697 37.3842 34.6679 37.1656 34.8251C36.947 34.9822 36.7062 35.1618 36.627 35.2291C36.5478 35.2932 36.3767 35.4119 36.2468 35.4889C36.1169 35.569 35.9458 35.6652 35.8666 35.7069C35.7874 35.7486 35.6511 35.8063 35.5656 35.8352C35.4769 35.8672 35.2868 35.9506 35.1379 36.0212C34.989 36.0917 34.7038 36.2136 34.5042 36.2937C34.3046 36.3739 33.8832 36.5022 33.5695 36.5855C33.2558 36.6657 32.7838 36.7715 32.524 36.8196C32.2515 36.8677 31.8934 36.9126 31.6843 36.919C31.4847 36.9254 31.1552 36.9126 30.9556 36.8934C30.756 36.8741 30.3916 36.8292 30.1477 36.794C29.9037 36.7619 29.4253 36.6753 29.0863 36.6016C28.7472 36.5278 28.253 36.4156 27.9932 36.345C27.7302 36.2777 27.3405 36.1719 27.1219 36.1109C26.9033 36.05 26.5262 35.9282 26.2823 35.8384C26.0383 35.7486 25.7658 35.6396 25.6803 35.5979C25.5915 35.5562 25.4078 35.4728 25.2684 35.4087C25.129 35.3478 24.7646 35.181 24.4604 35.0367C24.1563 34.8924 23.7285 34.6711 23.5099 34.5461C23.2913 34.421 22.9998 34.2447 22.8604 34.1581C22.721 34.0683 22.5024 33.9208 22.3756 33.8246C22.2521 33.7316 21.9669 33.5007 21.742 33.3147C21.5202 33.1255 21.2065 32.8401 21.0449 32.6798C20.8802 32.5195 20.538 32.1411 20.2813 31.8429C20.0279 31.5414 19.7237 31.1759 19.6065 31.0252C19.4924 30.8744 19.3625 30.6788 19.3213 30.5923C19.2548 30.4415 19.2485 30.3966 19.258 29.9349C19.2643 29.4859 19.2548 29.3897 19.1692 28.9408C19.1154 28.6682 19.0267 28.2706 18.9728 28.059C18.9189 27.8473 18.8651 27.6485 18.8492 27.6165C18.8334 27.5876 18.7859 27.5619 18.7415 27.5619C18.6972 27.5619 18.6243 27.578 18.5736 27.5972C18.5261 27.6165 18.187 27.7094 17.8227 27.8024C17.3759 27.9211 16.9736 28.0494 16.6029 28.2001C16.2987 28.3219 15.8488 28.5111 15.6048 28.6169C15.3609 28.726 14.968 28.9248 14.7335 29.0563C14.4991 29.1909 14.1695 29.3962 14.0048 29.5116C13.84 29.6302 13.6246 29.8034 13.5295 29.9028C13.4313 29.999 13.2444 30.2139 13.1081 30.3742C12.9751 30.5377 12.8452 30.6692 12.823 30.6628C12.804 30.6564 12.7818 30.6179 12.7755 30.573C12.7691 30.5249 12.8864 30.2523 13.0923 29.8387C13.2729 29.4763 13.4377 29.1044 13.4598 29.0114C13.4788 28.9216 13.4978 28.7484 13.4978 28.6266C13.4978 28.5079 13.4757 28.3251 13.4472 28.2193C13.4218 28.1135 13.3553 27.9467 13.3014 27.8505C13.2475 27.7543 13.162 27.6165 13.1081 27.5459C13.0543 27.4754 12.9592 27.3631 12.899 27.2926C12.8357 27.2252 12.7121 27.1355 12.6265 27.0938C12.4998 27.0328 12.4143 27.0168 12.2052 27.0168C11.9992 27.0168 11.8915 27.036 11.6824 27.1098C11.5398 27.1611 11.2927 27.2669 11.1374 27.3503C10.979 27.4305 10.8047 27.5042 10.7477 27.5138C10.6748 27.5267 10.64 27.517 10.621 27.4786C10.6051 27.4433 10.6241 27.408 10.678 27.3663C10.7224 27.3343 11.0107 27.1739 11.3212 27.0104C11.7109 26.8052 11.9232 26.6737 11.996 26.5903C12.0562 26.5262 12.1196 26.4107 12.1386 26.3338C12.1576 26.26 12.1766 26.0676 12.1766 25.9105C12.183 25.6508 12.1735 25.6091 12.0974 25.4776C12.0531 25.3974 11.9105 25.2307 11.7806 25.1056C11.6539 24.9806 11.4701 24.8298 11.375 24.7721C11.28 24.7144 11.1437 24.6471 11.074 24.6214C11.0012 24.5926 10.7826 24.5669 10.5671 24.5573C10.32 24.5445 10.0316 24.5573 9.74332 24.5926C9.49936 24.6214 9.24589 24.6439 9.17935 24.6439C9.07796 24.6439 9.06212 24.6342 9.06846 24.5701C9.07796 24.5092 9.13183 24.4803 9.4455 24.3713C9.66411 24.2943 9.86372 24.2013 9.93659 24.1436C10.0063 24.0891 10.114 23.9673 10.1806 23.8711C10.301 23.7011 10.3041 23.6947 10.3041 23.3933C10.3073 23.1624 10.2915 23.0405 10.2408 22.8962C10.1837 22.7359 10.133 22.6653 9.92709 22.4697C9.79085 22.3415 9.55956 22.1523 9.41064 22.0497C9.26173 21.947 9.06212 21.8188 8.96707 21.7675C8.87202 21.713 8.58687 21.5847 8.3334 21.4853C8.07993 21.3859 7.82012 21.2961 7.75358 21.2833C7.64586 21.264 7.63635 21.2512 7.63635 21.155C7.63635 21.0556 7.63952 21.0524 7.76942 21.0556C7.84547 21.0556 8.02606 21.0684 8.17498 21.0844C8.32389 21.1005 8.86568 21.1358 9.37896 21.1614C9.89224 21.1903 10.4119 21.2191 10.5354 21.2287C10.6558 21.2416 11.0487 21.2833 11.4067 21.3282C11.7647 21.3698 12.1703 21.4211 12.3097 21.4404C12.4491 21.4564 13.0258 21.5654 13.5929 21.6809C14.16 21.7963 14.93 21.9631 15.3038 22.0529C15.6777 22.1459 16.0357 22.2196 16.0959 22.2196C16.1815 22.2228 16.2068 22.21 16.2163 22.1587C16.2227 22.1234 16.1213 21.8701 15.9914 21.5975C15.8615 21.3249 15.7442 21.0748 15.7347 21.0428C15.7252 21.0139 15.6904 20.9786 15.6587 20.969C15.6302 20.9562 15.5636 20.9722 15.5098 21.0043C15.4527 21.0363 15.3862 21.0524 15.3418 21.0396C15.3038 21.0299 15.2595 20.9947 15.2436 20.9626C15.2278 20.9337 15.1708 20.7413 15.1169 20.5393C15.0662 20.3373 14.9775 20.0391 14.9236 19.8819C14.8666 19.7216 14.7715 19.4907 14.7082 19.3689C14.6448 19.2438 14.442 18.9552 14.2614 18.7275C14.0808 18.4967 13.9129 18.2658 13.8876 18.2145C13.8622 18.16 13.8305 18.0541 13.821 17.974C13.8084 17.8521 13.8274 17.7816 13.9509 17.509C14.0301 17.3326 14.1252 17.1114 14.16 17.0184C14.1981 16.9286 14.2646 16.7041 14.3121 16.5213C14.3882 16.2359 14.3977 16.1365 14.3977 15.7133C14.3977 15.2707 14.3913 15.2162 14.3153 15.0078C14.2678 14.8827 14.1569 14.6454 14.065 14.4787C13.9731 14.3119 13.8939 14.1227 13.8876 14.0618C13.8781 13.9913 13.8939 13.9175 13.9319 13.863C13.9636 13.8181 14.0872 13.6578 14.2044 13.5103C14.3216 13.3628 14.4769 13.1287 14.6765 12.731L14.6638 12.3302C14.6511 11.9614 14.6448 11.9101 14.5466 11.6889C14.4896 11.5574 14.3945 11.3746 14.3375 11.288C14.2804 11.1983 14.103 10.9866 13.9446 10.8135C13.7862 10.6435 13.6563 10.4768 13.6563 10.4447C13.6531 10.4158 13.6848 10.3613 13.7196 10.326C13.783 10.2683 13.7988 10.2651 13.9351 10.3036C14.0175 10.326 14.1949 10.4126 14.3311 10.496C14.4674 10.5794 14.7113 10.7589 14.8698 10.9C15.0313 11.0379 15.2531 11.256 15.364 11.381C15.4749 11.5061 15.6238 11.6889 15.6999 11.7851C15.7727 11.8813 15.9533 12.141 16.1023 12.3623C16.2512 12.5835 16.473 12.9363 16.5965 13.1479C16.7169 13.3596 16.8912 13.6706 16.9831 13.8374C17.0718 14.0041 17.208 14.2799 17.2841 14.4466C17.3633 14.6134 17.4583 14.8154 17.4995 14.8956C17.5407 14.9821 17.5946 15.0431 17.6326 15.0495C17.6674 15.0559 17.8163 15.0014 17.9653 14.9308C18.1142 14.8571 18.374 14.7448 18.5482 14.6807C18.7193 14.6134 18.8746 14.5364 18.8936 14.5108C18.9189 14.4755 18.8841 14.3953 18.7479 14.1805C18.5989 13.9496 18.5419 13.8887 18.4152 13.8245C18.3328 13.7828 18.2314 13.7379 18.187 13.7251C18.1427 13.7123 18.0698 13.6738 18.0191 13.6417C17.9621 13.6001 17.9336 13.552 17.9336 13.491C17.9304 13.4429 17.9558 13.382 17.9874 13.3531C18.0191 13.3243 18.1997 13.2537 18.393 13.1992C18.5831 13.1415 18.8556 13.0389 18.995 12.9715C19.1344 12.9074 19.3403 12.7856 19.4544 12.7022C19.5685 12.622 19.7396 12.4553 19.8346 12.3334C19.9297 12.2116 20.0469 12.032 20.0944 11.9326C20.1641 11.7915 20.1831 11.7081 20.1831 11.5446C20.1831 11.4291 20.1673 11.2977 20.1483 11.2464C20.1293 11.1983 20.0532 11.0924 19.974 11.0059C19.8948 10.9193 19.8346 10.8231 19.8346 10.7814C19.8346 10.7429 19.8504 10.6884 19.8663 10.6627C19.8916 10.6211 20.0025 10.6146 20.538 10.6146C21.1241 10.6114 21.197 10.605 21.3713 10.5409C21.4758 10.5024 21.6374 10.419 21.7261 10.3581C21.818 10.2972 21.9606 10.1849 22.043 10.108C22.1222 10.0342 22.2362 9.89955 22.2901 9.81297C22.3471 9.72318 22.4327 9.54361 22.4802 9.41213C22.5341 9.26142 22.5721 9.07543 22.5816 8.9151C22.5943 8.7259 22.5879 8.61688 22.5467 8.49823C22.5182 8.40844 22.4232 8.2449 22.3376 8.12946C22.2331 7.99478 22.1792 7.88896 22.1792 7.83124C22.1792 7.77673 22.2045 7.72542 22.2489 7.69656C22.3091 7.65487 22.3535 7.65167 22.5277 7.68053C22.6418 7.69977 22.8192 7.73825 22.9238 7.76711C23.0917 7.81521 23.1582 7.81521 23.4941 7.77993C23.7032 7.75749 23.9598 7.71259 24.0644 7.67732C24.1689 7.64525 24.3432 7.56509 24.4541 7.49775C24.5618 7.43041 24.7266 7.30214 24.8185 7.21235C24.9167 7.11615 25.0371 6.9494 25.1131 6.79548C25.186 6.6576 25.281 6.43954 25.3254 6.31769C25.3698 6.19263 25.4268 5.97137 25.4553 5.82065C25.4965 5.59618 25.4997 5.49998 25.4711 5.27552C25.4553 5.1248 25.4046 4.85865 25.3603 4.68228C25.3191 4.50591 25.2842 4.31031 25.2842 4.24938C25.2842 4.18845 25.3064 4.10187 25.3381 4.05698C25.3666 4.01208 25.4078 3.96719 25.4236 3.95436C25.4426 3.94154 25.4902 3.92871 25.5282 3.92871Z" fill="#0F4D74"/>
<path opacity="0.15" d="M26.0921 5.69238C26.1175 5.69238 26.1935 5.78858 26.2632 5.90723C26.3298 6.02908 26.4787 6.29203 26.5927 6.49405C26.7036 6.69607 26.8684 7.00712 26.9571 7.18349C27.0458 7.35986 27.2359 7.86972 27.388 8.32186C27.5369 8.7708 27.746 9.46664 27.8506 9.86748C27.9551 10.2715 28.0502 10.6948 28.0597 10.8134C28.0787 11.0155 28.0755 11.0347 28.0122 11.054C27.9583 11.0764 27.9488 11.0956 27.9647 11.1662C27.9773 11.2175 28.0027 11.2912 28.0249 11.3361C28.047 11.381 28.0819 11.5093 28.1041 11.6247C28.1231 11.7402 28.1738 12.0095 28.2181 12.2244C28.2593 12.4424 28.2942 12.7343 28.2942 12.8753C28.2942 13.0164 28.2783 13.1704 28.2561 13.2185C28.2371 13.2698 28.1896 13.3403 28.0882 13.4493L28.2466 13.6289C28.3322 13.7283 28.4146 13.8085 28.4272 13.8053C28.4431 13.8053 28.4526 13.8373 28.4526 13.8758C28.4526 13.9175 28.4874 14.0073 28.535 14.0779C28.5825 14.1484 28.7504 14.4017 28.912 14.639C29.0736 14.8763 29.3334 15.2868 29.4886 15.5529C29.6471 15.8159 29.9195 16.3065 30.0938 16.6432C30.2712 16.9767 30.531 17.5122 30.6736 17.8297C30.8162 18.1471 31.038 18.673 31.1679 19.0001C31.2978 19.3272 31.5006 19.8819 31.621 20.2347C31.7382 20.5874 31.8998 21.1069 31.9822 21.3891C32.0614 21.6713 32.1881 22.1683 32.2673 22.4954C32.3465 22.8225 32.4511 23.3131 32.5049 23.5857C32.5588 23.8582 32.6285 24.2623 32.6634 24.4835C32.6982 24.7048 32.7552 25.1217 32.7933 25.4135C32.8281 25.7053 32.8788 26.2151 32.9042 26.5518C32.9295 26.8853 32.9612 27.5074 32.9707 27.9307C32.9802 28.354 33.0024 28.758 33.0182 28.8286C33.0436 28.9248 33.0404 29.0306 33.0024 29.2454C32.977 29.4026 32.9485 29.7361 32.9358 29.983C32.9263 30.2299 32.8978 30.6692 32.8693 30.961C32.844 31.2528 32.7869 31.7563 32.7426 32.0834C32.6982 32.4104 32.6127 32.9588 32.5525 33.3019C32.4891 33.645 32.3814 34.1869 32.3117 34.5044C32.242 34.8219 32.1057 35.367 32.0138 35.7133C31.9188 36.0628 31.8427 36.3547 31.8427 36.3643C31.8427 36.3739 31.8269 36.3771 31.8079 36.3707C31.7889 36.3675 31.754 36.4348 31.7319 36.5246C31.7097 36.6112 31.6685 36.7362 31.5988 36.9094L31.396 36.8709C31.2851 36.8485 31.1362 36.8292 31.0665 36.8292C30.9968 36.8292 30.8257 36.7972 30.6863 36.7555C30.5469 36.7138 30.3124 36.6593 30.1635 36.6368C30.0146 36.6176 29.7009 36.5631 29.4665 36.5182C29.232 36.4765 28.8676 36.4316 28.6585 36.422C28.3449 36.4092 28.2213 36.3867 27.9456 36.3001C27.7619 36.2392 27.4641 36.1494 27.2803 36.0949C27.0965 36.0436 26.8842 35.9891 26.805 35.9763C26.7258 35.9666 26.5769 35.9218 26.4723 35.8769C26.3678 35.832 26.1872 35.7775 26.0668 35.7518C25.902 35.7165 25.8197 35.678 25.7024 35.5818C25.6201 35.5113 25.4395 35.383 25.3 35.2997C25.1606 35.2131 24.8596 35.0592 24.6347 34.9565C24.321 34.8122 24.1784 34.7257 24.0327 34.5942C23.9281 34.498 23.7285 34.3633 23.5891 34.2928C23.4497 34.2222 23.2343 34.1453 23.1139 34.1196C22.9903 34.0939 22.8477 34.0715 22.797 34.0715C22.7178 34.0715 22.6038 33.9721 22.0588 33.4205C21.7039 33.0646 21.254 32.5932 21.0576 32.372C20.8643 32.1507 20.652 31.8974 20.5918 31.8108C20.5285 31.721 20.4081 31.5286 20.3225 31.3779C20.2401 31.2272 20.0722 30.9738 19.955 30.8167C19.8029 30.6147 19.73 30.48 19.7047 30.3678C19.6793 30.2652 19.6762 30.0952 19.6889 29.9028C19.6984 29.7361 19.7174 29.5052 19.7269 29.3897C19.7427 29.2102 19.73 29.1332 19.635 28.8286C19.5748 28.633 19.4956 28.354 19.4607 28.2033C19.4259 28.0526 19.3879 27.8666 19.3752 27.7864C19.3657 27.7062 19.334 27.5651 19.3086 27.4722C19.277 27.3567 19.2738 27.2862 19.296 27.2413C19.3182 27.1964 19.315 27.1611 19.2865 27.1258C19.2675 27.1002 19.1851 27.0457 19.1059 27.0104C19.0172 26.9687 18.9063 26.943 18.8049 26.9463C18.7162 26.9495 18.6274 26.9687 18.5989 26.9944C18.5736 27.02 18.4437 27.0809 18.3138 27.1258C18.1839 27.1739 17.8544 27.2701 17.5851 27.3407C17.3157 27.4112 16.9862 27.5042 16.8563 27.5491C16.7264 27.594 16.3177 27.7575 15.9533 27.9147C15.5858 28.0686 15.1676 28.2546 15.0187 28.3219C14.8698 28.3925 14.6099 28.5304 14.4389 28.6298C14.2709 28.7292 14.1062 28.8093 14.0745 28.8029C14.0396 28.7997 14.0175 28.7644 14.0111 28.7067C14.0048 28.6266 13.9984 28.6201 13.7893 28.6682L13.7672 28.4758C13.7577 28.37 13.7323 28.1904 13.7133 28.075C13.6911 27.9532 13.6214 27.7543 13.5422 27.594C13.4662 27.4401 13.2982 27.19 13.1588 27.0168C13.0226 26.8501 12.8673 26.6801 12.8166 26.6448C12.7628 26.6063 12.6677 26.555 12.484 26.4877V26.1029C12.484 25.8913 12.4713 25.6315 12.4554 25.5257C12.4428 25.4199 12.3952 25.2627 12.3541 25.173C12.3065 25.0703 12.1545 24.8876 11.9295 24.6599C11.6697 24.3969 11.5239 24.2751 11.3592 24.1885C11.2356 24.1244 11.0392 24.0442 10.7033 23.9544L10.7318 23.746C10.7445 23.6305 10.754 23.4221 10.754 23.281C10.7509 23.1335 10.7223 22.9155 10.6812 22.768C10.6368 22.5916 10.5734 22.4569 10.4879 22.3351C10.4182 22.2388 10.2788 22.0849 10.1806 21.9983C10.0475 21.8797 10.0063 21.822 10.0221 21.7803C10.0411 21.7354 10.0855 21.7258 10.2883 21.7258C10.4245 21.7258 10.621 21.7418 10.7255 21.7578C10.8301 21.7771 11.1659 21.8188 11.4701 21.854C11.7742 21.8893 12.1038 21.931 12.1988 21.947C12.2939 21.9599 12.6646 22.04 13.0226 22.1202C13.3806 22.2036 14.0365 22.3479 14.48 22.4473C14.9236 22.5467 15.5066 22.6846 15.7696 22.7519C16.0357 22.8225 16.3019 22.8802 16.3557 22.8802C16.4223 22.8802 16.5205 22.8417 16.6155 22.7776C16.7042 22.7199 16.8151 22.6076 16.8627 22.5275C16.9165 22.4409 16.9514 22.3383 16.9514 22.2709C16.9514 22.1908 16.8975 22.0689 16.7708 21.854C16.6726 21.6873 16.5173 21.3891 16.4286 21.1967C16.3367 21.0011 16.248 20.7926 16.2258 20.7317C16.2068 20.6708 16.1403 20.5553 16.0737 20.4784C16.0009 20.3918 15.89 20.3084 15.7949 20.2667C15.7062 20.2283 15.6207 20.1737 15.6016 20.1513C15.5826 20.1256 15.5351 19.9846 15.4971 19.8338C15.4591 19.6831 15.3767 19.4394 15.3133 19.2887C15.25 19.138 15.1391 18.9296 15.0694 18.8237C14.9997 18.7179 14.8349 18.4999 14.7018 18.3427C14.5719 18.1824 14.442 18.0285 14.4167 17.9964C14.3723 17.9419 14.385 17.9034 14.5529 17.5635C14.6796 17.3006 14.7684 17.0536 14.8507 16.7394C14.9648 16.3097 14.9711 16.268 14.9711 15.7774C14.9711 15.3285 14.9616 15.2355 14.8951 15.0238C14.8571 14.8923 14.7462 14.6102 14.6511 14.3985C14.5561 14.1869 14.48 13.9977 14.48 13.9816C14.48 13.9624 14.5814 13.8117 14.7018 13.6449C14.8191 13.4782 14.9743 13.2249 15.0408 13.0838C15.1454 12.8561 15.1612 12.792 15.1771 12.5162C15.1866 12.3398 15.2088 12.1859 15.2309 12.1635C15.2531 12.1378 15.2911 12.1314 15.3197 12.1442C15.345 12.1603 15.5636 12.4681 15.8044 12.8337C16.0864 13.2698 16.3304 13.6898 16.5078 14.0458C16.6535 14.344 16.85 14.7769 16.9419 15.0078C17.0654 15.322 17.1351 15.4503 17.2207 15.5273C17.2809 15.585 17.3854 15.6459 17.4488 15.6652C17.5153 15.6812 17.6041 15.6972 17.6484 15.6972C17.6928 15.6972 17.9114 15.6074 18.1395 15.4952C18.3645 15.383 18.6876 15.2387 18.8524 15.1777C19.0172 15.1136 19.2326 15.0463 19.3277 15.0238C19.4227 15.0014 19.5526 14.9533 19.6128 14.9148C19.673 14.8795 19.7617 14.7897 19.8093 14.7192C19.8599 14.6486 19.9011 14.5685 19.9011 14.5428C19.9011 14.5172 19.8188 14.4498 19.7174 14.3985C19.5685 14.3216 19.5051 14.2574 19.3815 14.0779C19.296 13.9528 19.2009 13.7989 19.1661 13.7315C19.1312 13.661 19.1122 13.5776 19.1217 13.5231C19.1312 13.4718 19.1692 13.4205 19.2168 13.3948C19.2611 13.3756 19.3213 13.3563 19.3498 13.3563C19.3815 13.3531 19.4924 13.3018 19.597 13.2345C19.7015 13.1704 19.8853 13.0229 20.0057 12.9074C20.1229 12.792 20.3035 12.5771 20.4017 12.4264C20.5253 12.2372 20.5982 12.0897 20.633 11.9454C20.6615 11.83 20.6964 11.6728 20.7122 11.5927C20.7344 11.4676 20.7471 11.4484 20.8168 11.4484C20.8865 11.4484 20.8992 11.4323 20.9118 11.3201C20.9277 11.2047 20.9372 11.1918 21.0386 11.1726C21.0988 11.1598 21.2572 11.1181 21.3871 11.0796C21.517 11.0411 21.6944 10.9706 21.7831 10.9257C21.8687 10.8808 22.0398 10.7718 22.1634 10.6788C22.2838 10.5858 22.4644 10.4254 22.5594 10.3228C22.6703 10.201 22.7717 10.0438 22.8477 9.8771C22.9079 9.73601 22.9871 9.52757 23.0188 9.41213C23.0505 9.29669 23.0854 9.08826 23.0949 8.94716C23.1139 8.69063 23.1139 8.69063 23.1994 8.69704C23.285 8.70666 23.2881 8.70025 23.2881 8.40203L23.5479 8.36034C23.6937 8.33789 23.982 8.26093 24.1911 8.19039C24.4034 8.11984 24.6474 8.01081 24.7456 7.94668C24.8406 7.88254 25.0244 7.72862 25.1511 7.60356C25.2874 7.46888 25.4363 7.2829 25.5123 7.15142C25.582 7.02636 25.6739 6.84037 25.7151 6.73455C25.7563 6.62873 25.845 6.36258 25.9052 6.14132C25.9686 5.92006 26.0256 5.73086 26.0351 5.71483C26.0414 5.702 26.07 5.69238 26.0921 5.69238Z" fill="#0F1013"/>
<g opacity="0.1">
<path d="M24.3813 14.3633C24.4858 14.3665 24.508 14.3793 24.508 14.4306C24.508 14.4787 24.4035 14.5589 24.0961 14.7449C23.868 14.8859 23.5417 15.1008 23.3674 15.2259C23.1931 15.3541 22.9492 15.5433 22.8288 15.6491C22.7052 15.755 22.5056 15.9409 22.3852 16.066C22.2616 16.1879 21.9701 16.5149 21.7357 16.7875C21.4981 17.0601 21.2478 17.3551 21.1749 17.4449C21.1052 17.5315 20.9468 17.7623 20.8232 17.9579C20.7028 18.1503 20.5666 18.3812 20.5222 18.471C20.4778 18.5576 20.3923 18.7821 20.3258 18.9681C20.2624 19.154 20.1135 19.6511 19.9931 20.0744C19.8758 20.4976 19.7459 21.0235 19.7111 21.2448C19.6731 21.4661 19.6224 21.8541 19.597 22.1106C19.5717 22.3671 19.5337 22.7776 19.5178 23.0245C19.4988 23.2714 19.4735 24.3136 19.4608 25.3429C19.445 26.5486 19.4259 27.2092 19.4069 27.2092C19.3879 27.2124 19.3594 27.1932 19.3372 27.1707C19.3182 27.1483 19.201 26.8693 19.0774 26.5518C18.957 26.2344 18.7669 25.7502 18.6529 25.4776C18.542 25.205 18.3455 24.7721 18.2188 24.5156C18.0921 24.2591 17.8132 23.7171 17.601 23.3131C17.3887 22.9059 17.1352 22.4152 17.0402 22.2228C16.9419 22.0272 16.7962 21.6745 16.717 21.4372C16.6346 21.1999 16.5237 20.8311 16.473 20.6195C16.4191 20.4079 16.3494 20.0712 16.3146 19.8723C16.2734 19.6286 16.2544 19.3625 16.2544 19.0386C16.2544 18.7724 16.2766 18.4357 16.3019 18.2626C16.3304 18.0958 16.3938 17.7912 16.4477 17.5892C16.511 17.3391 16.6061 17.0921 16.7392 16.8196C16.8944 16.5021 16.9768 16.3771 17.1257 16.2263C17.2303 16.1205 17.4204 15.9602 17.5503 15.8736C17.677 15.7838 17.8481 15.6748 17.9305 15.6235C18.0097 15.5754 18.2188 15.4632 18.393 15.3766C18.5673 15.29 18.8366 15.1778 18.995 15.1232C19.1503 15.0719 19.521 14.9822 19.8188 14.9308C20.1135 14.8763 20.7186 14.7737 21.1559 14.7032C21.5963 14.6326 22.2458 14.546 22.5975 14.5108C22.9523 14.4755 23.4688 14.4274 23.7476 14.4017C24.0264 14.3761 24.3116 14.3601 24.3813 14.3633Z" fill="#0F1013"/>
<path d="M15.3007 12.1442C15.3292 12.1506 15.5478 12.4489 15.7855 12.8112C16.0896 13.2666 16.3082 13.645 16.5047 14.0458C16.6599 14.3633 16.8532 14.7865 16.9324 14.9821C17.0116 15.181 17.0782 15.3862 17.0782 15.4407C17.0782 15.5209 17.0275 15.585 16.7582 15.8319C16.5459 16.0307 16.3875 16.2103 16.2861 16.3706C16.2037 16.5021 16.0801 16.7266 16.0104 16.8677C15.9407 17.0088 15.852 17.2172 15.8171 17.3326C15.7791 17.4481 15.7253 17.6501 15.6936 17.7816C15.6556 17.9515 15.6365 18.2337 15.6239 18.7436C15.608 19.3977 15.5985 19.4651 15.5478 19.4715C15.5098 19.4779 15.4686 19.4266 15.4053 19.2791C15.3546 19.1701 15.2658 19.0001 15.2025 18.9039C15.1423 18.8077 14.9902 18.6057 14.8666 18.455C14.7399 18.3043 14.6385 18.1568 14.6385 18.1247C14.6385 18.0958 14.6734 18.0541 14.7177 18.0381C14.7621 18.0189 14.873 18.006 14.9617 18.006C15.0536 18.006 15.1518 17.9932 15.1771 17.9772C15.2088 17.9579 15.1169 17.9419 14.9142 17.9291C14.7177 17.9163 14.6005 17.897 14.5878 17.8682C14.5751 17.8489 14.6195 17.7207 14.6829 17.5892C14.7431 17.4577 14.8381 17.1819 14.8951 16.9799C14.9839 16.6496 14.9934 16.5502 15.0092 16.0179C15.0219 15.5465 15.0155 15.3862 14.9775 15.2323C14.9522 15.1264 14.8761 14.902 14.8128 14.7352C14.7494 14.5685 14.6955 14.4017 14.6924 14.3665C14.686 14.3152 14.705 14.3023 14.7811 14.3055C14.8318 14.3087 15.0029 14.3697 15.1613 14.4434C15.326 14.5236 15.4274 14.5589 15.3989 14.5268C15.3736 14.4979 15.1708 14.3729 14.9458 14.251C14.705 14.1195 14.5435 14.0105 14.5435 13.9817C14.5435 13.956 14.6227 13.8213 14.7209 13.6834C14.8159 13.5488 14.9427 13.3339 15.0029 13.2121C15.0599 13.087 15.1233 12.9299 15.1423 12.8593C15.1613 12.7888 15.1771 12.6252 15.174 12.497C15.174 12.3655 15.1898 12.234 15.2088 12.1987C15.231 12.1635 15.269 12.1378 15.3007 12.1442Z" fill="#0F1013"/>
<path d="M26.0921 5.69238C26.1175 5.69238 26.184 5.76934 26.2411 5.85913C26.2949 5.95212 26.4407 6.2311 26.5674 6.47802C26.691 6.72493 26.8367 7.04239 26.8906 7.18349C26.9444 7.32458 27.0553 7.65487 27.1345 7.92102C27.2138 8.18397 27.3373 8.61687 27.407 8.88303C27.4767 9.14598 27.6003 9.66546 27.6763 10.0374C27.7524 10.4062 27.8569 10.9994 27.9108 11.3522C27.99 11.8973 28.0058 12.1057 28.0154 12.7375C28.0217 13.2056 28.0122 13.491 27.9932 13.5103C27.9742 13.5263 27.8252 13.584 27.3595 13.7379L25.902 13.7508C24.7931 13.7636 24.264 13.7828 23.6842 13.8341C23.266 13.8694 22.7812 13.9143 22.6069 13.9335C22.4327 13.9528 22.1602 13.9816 22.0049 14.0009C21.8465 14.0201 21.5138 14.0682 21.2604 14.1099C21.0069 14.1548 20.6235 14.2254 20.4049 14.2702C20.1863 14.3151 19.974 14.3504 19.9297 14.3504C19.8726 14.3472 19.7427 14.2446 19.4702 13.9752C19.1534 13.6642 19.0964 13.5968 19.1249 13.552C19.1439 13.5231 19.3023 13.4141 19.4734 13.3082C19.6445 13.2024 19.8853 13.0229 20.0057 12.9074C20.1229 12.792 20.3035 12.5771 20.4017 12.4264C20.5253 12.2372 20.5982 12.0897 20.633 11.9454C20.6615 11.83 20.6964 11.6728 20.7122 11.5927C20.7313 11.4836 20.7534 11.4452 20.801 11.4388C20.8358 11.4355 20.9562 11.4933 21.0703 11.567C21.2002 11.6568 21.3047 11.7562 21.3618 11.8492C21.4093 11.9294 21.4853 12.1089 21.6089 12.5066L21.5931 12.2981C21.5835 12.1827 21.5424 11.9743 21.498 11.8332C21.4346 11.6344 21.3839 11.5382 21.2667 11.4035C21.1526 11.272 21.1241 11.2207 21.1495 11.1854C21.1653 11.1566 21.2889 11.1053 21.4188 11.0636C21.5487 11.0251 21.7198 10.961 21.799 10.9193C21.8782 10.8808 22.0398 10.7718 22.1634 10.6788C22.2838 10.5858 22.4644 10.4254 22.5594 10.3228C22.6703 10.201 22.7717 10.0438 22.8477 9.8771C22.9111 9.73601 22.9935 9.49871 23.0315 9.348C23.0695 9.19728 23.098 8.99206 23.098 8.88944C23.098 8.75797 23.1107 8.70025 23.1456 8.68101C23.1804 8.66497 23.2311 8.69383 23.3071 8.77079C23.3673 8.83172 23.4877 9.02733 23.5733 9.2037C23.6588 9.38006 23.7634 9.65263 23.8109 9.81297C23.8553 9.97009 23.9218 10.2587 23.9567 10.4543C23.9947 10.6467 24.0359 10.9578 24.0707 11.4804L24.0739 11.1918C24.0771 11.0315 24.058 10.7525 24.0295 10.5665C24.0042 10.3805 23.944 10.0631 23.8996 9.86107C23.8553 9.65904 23.7729 9.36082 23.7159 9.2037C23.662 9.04336 23.5543 8.81889 23.4814 8.69704C23.4117 8.57839 23.3515 8.46616 23.3515 8.45013C23.3515 8.43089 23.361 8.41165 23.3737 8.40523C23.3895 8.39561 23.5194 8.36675 23.6683 8.33789C23.8173 8.30903 24.0866 8.23207 24.2703 8.16473C24.4889 8.08777 24.6759 7.99478 24.809 7.89858C24.923 7.81841 25.1036 7.65808 25.2082 7.54584C25.3159 7.43682 25.4553 7.25083 25.5218 7.13539C25.5852 7.01995 25.6739 6.84037 25.7151 6.73455C25.7595 6.62873 25.845 6.36258 25.9052 6.14132C25.9686 5.92006 26.0256 5.73086 26.0351 5.71483C26.0415 5.702 26.07 5.69238 26.0921 5.69238Z" fill="#0F1013"/>
<path d="M10.2883 21.7258C10.4245 21.7258 10.621 21.7418 10.7255 21.7578C10.8301 21.7771 11.1659 21.8188 11.4701 21.854C11.7743 21.8893 12.1038 21.931 12.1988 21.947C12.2939 21.9599 12.7375 22.0561 13.181 22.1555C13.6246 22.2549 14.2805 22.4024 14.6385 22.4825C14.9965 22.5627 15.5288 22.691 15.8266 22.7679C16.1213 22.8417 16.4318 22.9154 16.5142 22.9251C16.6472 22.9411 16.6852 22.9668 16.7993 23.1014C16.8785 23.188 17.1098 23.5856 17.3379 24.0218C17.5566 24.445 17.772 24.8587 17.8164 24.9485C17.8607 25.0351 18.0286 25.4391 18.1966 25.8464C18.3613 26.2504 18.5197 26.6641 18.5514 26.7603C18.5831 26.8565 18.6021 26.9591 18.5926 26.9847C18.5831 27.0104 18.4437 27.0809 18.2789 27.1354C18.1142 27.1932 17.7815 27.2926 17.5375 27.3535C17.2936 27.4176 16.9862 27.5042 16.8563 27.5491C16.7264 27.594 16.3177 27.7575 15.9534 27.9147C15.5858 28.0686 15.1676 28.2546 15.0187 28.3219C14.8698 28.3925 14.61 28.5303 14.4389 28.6298C14.2709 28.7292 14.1094 28.8125 14.084 28.8125C14.0587 28.8125 14.0301 28.7933 14.0238 28.7708C14.0175 28.7516 13.989 28.556 13.9604 28.3379C13.9224 28.0558 13.8844 27.8922 13.8179 27.7447C13.7672 27.6357 13.6563 27.4433 13.5707 27.3214C13.4852 27.1964 13.3268 27.0008 13.219 26.8789C13.1082 26.7571 13.0258 26.6384 13.0321 26.6063C13.0353 26.5711 13.1747 26.4813 13.4187 26.3562C13.6278 26.2504 13.9193 26.1157 14.0682 26.058C14.2171 26.0003 14.5086 25.9041 14.7177 25.8464C14.9331 25.7854 15.0567 25.7373 15.0028 25.7373C14.949 25.7341 14.686 25.7854 14.4167 25.8464C14.1474 25.9073 13.6785 26.0291 13.3775 26.1189C13.0796 26.2055 12.8103 26.2793 12.785 26.2793C12.7596 26.2793 12.7311 26.2632 12.7216 26.2472C12.7121 26.2279 12.6931 26.0452 12.6804 25.8367C12.6582 25.5193 12.6392 25.4327 12.56 25.2692C12.503 25.1505 12.3763 24.9806 12.2305 24.8266C12.1006 24.6919 11.8725 24.4963 11.7236 24.3937C11.543 24.2687 11.4543 24.1885 11.4543 24.1468C11.4543 24.1115 11.4891 24.0666 11.5335 24.0442C11.5778 24.025 11.7394 23.9704 11.8978 23.9223C12.0531 23.8775 12.3763 23.8069 12.6107 23.7684C12.9751 23.7075 13.1684 23.6979 13.9319 23.6979C14.4262 23.6979 14.8191 23.6947 14.8032 23.6915C14.7906 23.6883 14.5593 23.6562 14.29 23.6177C14.008 23.5824 13.6214 23.5536 13.387 23.5536C13.1588 23.5536 12.7406 23.5696 12.4523 23.5856C12.164 23.6049 11.7299 23.6434 11.4859 23.6722C11.242 23.7011 10.9917 23.7267 10.8206 23.7299L10.8016 23.3291C10.7889 23.0918 10.7572 22.8545 10.7255 22.7519C10.6938 22.6557 10.6241 22.505 10.5703 22.4184C10.5164 22.3318 10.3675 22.1651 10.2376 22.0496C10.0633 21.8925 10.0095 21.8252 10.0222 21.7803C10.038 21.7354 10.0824 21.7258 10.2883 21.7258Z" fill="#0F1013"/>
</g>
<g opacity="0.1">
<path d="M10.2883 21.7258C10.4245 21.7258 10.621 21.7418 10.7255 21.7578C10.8301 21.7771 11.1659 21.8188 11.4701 21.854C11.7743 21.8893 12.1038 21.931 12.1988 21.947C12.2939 21.9599 12.7375 22.0561 13.181 22.1555C13.6246 22.2549 14.2805 22.4024 14.6385 22.4825C14.9965 22.5627 15.5288 22.691 15.8266 22.7679C16.1213 22.8417 16.4318 22.9154 16.5142 22.9251C16.6472 22.9411 16.6852 22.9668 16.7993 23.1014C16.8785 23.188 17.1098 23.5856 17.3379 24.0218C17.5566 24.445 17.772 24.8587 17.8164 24.9485C17.8607 25.0351 18.0286 25.4391 18.1966 25.8464C18.3613 26.2504 18.5197 26.6641 18.5514 26.7603C18.5831 26.8565 18.6021 26.9591 18.5926 26.9847C18.5831 27.0104 18.4437 27.0809 18.2789 27.1354C18.1142 27.1932 17.7815 27.2926 17.5375 27.3535C17.2936 27.4176 16.9862 27.5042 16.8563 27.5491C16.7264 27.594 16.3177 27.7575 15.9534 27.9147C15.5858 28.0686 15.1676 28.2546 15.0187 28.3219C14.8698 28.3925 14.61 28.5303 14.4389 28.6298C14.2709 28.7292 14.1094 28.8125 14.084 28.8125C14.0587 28.8125 14.0301 28.7933 14.0238 28.7708C14.0175 28.7516 13.989 28.556 13.9604 28.3379C13.9224 28.0558 13.8844 27.8922 13.8179 27.7447C13.7672 27.6357 13.6563 27.4433 13.5707 27.3214C13.4852 27.1964 13.3268 27.0008 13.219 26.8789C13.1082 26.7571 13.0258 26.6384 13.0321 26.6063C13.0353 26.5711 13.1747 26.4813 13.4187 26.3562C13.6278 26.2504 13.9193 26.1157 14.0682 26.058C14.2171 26.0003 14.5086 25.9041 14.7177 25.8464C14.9331 25.7854 15.0567 25.7373 15.0028 25.7373C14.949 25.7341 14.686 25.7854 14.4167 25.8464C14.1474 25.9073 13.6785 26.0291 13.3775 26.1189C13.0796 26.2055 12.8103 26.2793 12.785 26.2793C12.7596 26.2793 12.7311 26.2632 12.7216 26.2472C12.7121 26.2279 12.6931 26.0452 12.6804 25.8367C12.6582 25.5193 12.6392 25.4327 12.56 25.2692C12.503 25.1505 12.3763 24.9806 12.2305 24.8266C12.1006 24.6919 11.8725 24.4963 11.7236 24.3937C11.543 24.2687 11.4543 24.1885 11.4543 24.1468C11.4543 24.1115 11.4891 24.0666 11.5335 24.0442C11.5778 24.025 11.7394 23.9704 11.8978 23.9223C12.0531 23.8775 12.3763 23.8069 12.6107 23.7684C12.9751 23.7075 13.1684 23.6979 13.9319 23.6979C14.4262 23.6979 14.8191 23.6947 14.8032 23.6915C14.7906 23.6883 14.5593 23.6562 14.29 23.6177C14.008 23.5824 13.6214 23.5536 13.387 23.5536C13.1588 23.5536 12.7406 23.5696 12.4523 23.5856C12.164 23.6049 11.7299 23.6434 11.4859 23.6722C11.242 23.7011 10.9917 23.7267 10.8206 23.7299L10.8016 23.3291C10.7889 23.0918 10.7572 22.8545 10.7255 22.7519C10.6938 22.6557 10.6241 22.505 10.5703 22.4184C10.5164 22.3318 10.3675 22.1651 10.2376 22.0496C10.0633 21.8925 10.0095 21.8252 10.0222 21.7803C10.038 21.7354 10.0824 21.7258 10.2883 21.7258Z" fill="#0F1013"/>
<path d="M15.3007 12.1442C15.3292 12.1506 15.5478 12.4489 15.7855 12.8112C16.0896 13.2666 16.3082 13.645 16.5047 14.0458C16.6599 14.3633 16.8532 14.7865 16.9324 14.9821C17.0116 15.181 17.0782 15.3862 17.0782 15.4407C17.0782 15.5209 17.0275 15.585 16.7582 15.8319C16.5459 16.0307 16.3875 16.2103 16.2861 16.3706C16.2037 16.5021 16.0801 16.7266 16.0104 16.8677C15.9407 17.0088 15.852 17.2172 15.8171 17.3326C15.7791 17.4481 15.7253 17.6501 15.6936 17.7816C15.6556 17.9515 15.6365 18.2337 15.6239 18.7436C15.608 19.3977 15.5985 19.4651 15.5478 19.4715C15.5098 19.4779 15.4686 19.4266 15.4053 19.2791C15.3546 19.1701 15.2658 19.0001 15.2025 18.9039C15.1423 18.8077 14.9902 18.6057 14.8666 18.455C14.7399 18.3043 14.6385 18.1568 14.6385 18.1247C14.6385 18.0958 14.6734 18.0541 14.7177 18.0381C14.7621 18.0189 14.873 18.006 14.9617 18.006C15.0536 18.006 15.1518 17.9932 15.1771 17.9772C15.2088 17.9579 15.1169 17.9419 14.9142 17.9291C14.7177 17.9163 14.6005 17.897 14.5878 17.8682C14.5751 17.8489 14.6195 17.7207 14.6829 17.5892C14.7431 17.4577 14.8381 17.1819 14.8951 16.9799C14.9839 16.6496 14.9934 16.5502 15.0092 16.0179C15.0219 15.5465 15.0155 15.3862 14.9775 15.2323C14.9522 15.1264 14.8761 14.902 14.8128 14.7352C14.7494 14.5685 14.6955 14.4017 14.6924 14.3665C14.686 14.3152 14.705 14.3023 14.7811 14.3055C14.8318 14.3087 15.0029 14.3697 15.1613 14.4434C15.326 14.5236 15.4274 14.5589 15.3989 14.5268C15.3736 14.4979 15.1708 14.3729 14.9458 14.251C14.705 14.1195 14.5435 14.0105 14.5435 13.9817C14.5435 13.956 14.6227 13.8213 14.7209 13.6834C14.8159 13.5488 14.9427 13.3339 15.0029 13.2121C15.0599 13.087 15.1233 12.9299 15.1423 12.8593C15.1613 12.7888 15.1771 12.6252 15.174 12.497C15.174 12.3655 15.1898 12.234 15.2088 12.1987C15.231 12.1635 15.269 12.1378 15.3007 12.1442Z" fill="#0F1013"/>
<path d="M26.0921 5.69238C26.1175 5.69238 26.184 5.76934 26.2411 5.85913C26.2949 5.95212 26.4407 6.2311 26.5674 6.47802C26.691 6.72493 26.8367 7.04239 26.8906 7.18349C26.9444 7.32458 27.0553 7.65487 27.1345 7.92102C27.2138 8.18397 27.3373 8.61687 27.407 8.88303C27.4767 9.14598 27.6003 9.66546 27.6763 10.0374C27.7524 10.4062 27.8569 10.9994 27.9108 11.3522C27.99 11.8973 28.0058 12.1057 28.0154 12.7375C28.0217 13.2056 28.0122 13.491 27.9932 13.5103C27.9742 13.5263 27.8252 13.584 27.3595 13.7379L25.902 13.7508C24.7931 13.7636 24.264 13.7828 23.6842 13.8341C23.266 13.8694 22.7812 13.9143 22.6069 13.9335C22.4327 13.9528 22.1602 13.9816 22.0049 14.0009C21.8465 14.0201 21.5138 14.0682 21.2604 14.1099C21.0069 14.1548 20.6235 14.2254 20.4049 14.2702C20.1863 14.3151 19.974 14.3504 19.9297 14.3504C19.8726 14.3472 19.7427 14.2446 19.4702 13.9752C19.1534 13.6642 19.0964 13.5968 19.1249 13.552C19.1439 13.5231 19.3023 13.4141 19.4734 13.3082C19.6445 13.2024 19.8853 13.0229 20.0057 12.9074C20.1229 12.792 20.3035 12.5771 20.4017 12.4264C20.5253 12.2372 20.5982 12.0897 20.633 11.9454C20.6615 11.83 20.6964 11.6728 20.7122 11.5927C20.7313 11.4836 20.7534 11.4452 20.801 11.4388C20.8358 11.4355 20.9562 11.4933 21.0703 11.567C21.2002 11.6568 21.3047 11.7562 21.3618 11.8492C21.4093 11.9294 21.4853 12.1089 21.6089 12.5066L21.5931 12.2981C21.5835 12.1827 21.5424 11.9743 21.498 11.8332C21.4346 11.6344 21.3839 11.5382 21.2667 11.4035C21.1526 11.272 21.1241 11.2207 21.1495 11.1854C21.1653 11.1566 21.2889 11.1053 21.4188 11.0636C21.5487 11.0251 21.7198 10.961 21.799 10.9193C21.8782 10.8808 22.0398 10.7718 22.1634 10.6788C22.2838 10.5858 22.4644 10.4254 22.5594 10.3228C22.6703 10.201 22.7717 10.0438 22.8477 9.8771C22.9111 9.73601 22.9935 9.49871 23.0315 9.348C23.0695 9.19728 23.098 8.99206 23.098 8.88944C23.098 8.75797 23.1107 8.70025 23.1456 8.68101C23.1804 8.66497 23.2311 8.69383 23.3071 8.77079C23.3673 8.83172 23.4877 9.02733 23.5733 9.2037C23.6588 9.38006 23.7634 9.65263 23.8109 9.81297C23.8553 9.97009 23.9218 10.2587 23.9567 10.4543C23.9947 10.6467 24.0359 10.9578 24.0707 11.4804L24.0739 11.1918C24.0771 11.0315 24.058 10.7525 24.0295 10.5665C24.0042 10.3805 23.944 10.0631 23.8996 9.86107C23.8553 9.65904 23.7729 9.36082 23.7159 9.2037C23.662 9.04336 23.5543 8.81889 23.4814 8.69704C23.4117 8.57839 23.3515 8.46616 23.3515 8.45013C23.3515 8.43089 23.361 8.41165 23.3737 8.40523C23.3895 8.39561 23.5194 8.36675 23.6683 8.33789C23.8173 8.30903 24.0866 8.23207 24.2703 8.16473C24.4889 8.08777 24.6759 7.99478 24.809 7.89858C24.923 7.81841 25.1036 7.65808 25.2082 7.54584C25.3159 7.43682 25.4553 7.25083 25.5218 7.13539C25.5852 7.01995 25.6739 6.84037 25.7151 6.73455C25.7595 6.62873 25.845 6.36258 25.9052 6.14132C25.9686 5.92006 26.0256 5.73086 26.0351 5.71483C26.0415 5.702 26.07 5.69238 26.0921 5.69238Z" fill="#0F1013"/>
</g>
<path fill-rule="evenodd" clip-rule="evenodd" d="M25.5123 3.86456C25.544 3.86456 25.6074 3.89022 25.6549 3.92228C25.7056 3.95756 25.826 4.11148 25.9242 4.2686C26.0256 4.42573 26.2442 4.76885 26.409 5.035C26.5769 5.29795 26.8779 5.84629 27.0775 6.25354C27.3373 6.77943 27.4831 7.11934 27.5845 7.44001C27.6637 7.68693 27.8031 8.17113 27.895 8.51425C27.99 8.85736 28.1231 9.39929 28.196 9.71675C28.2657 10.0342 28.367 10.5601 28.4209 10.8872C28.4748 11.2143 28.5318 11.6953 28.5476 11.9614C28.5635 12.2244 28.5762 12.6541 28.5793 13.3884H29.4348L29.6502 13.0741C29.7706 12.9042 30.23 12.2212 30.6705 11.5606C31.1109 10.9 31.5608 10.2362 31.6653 10.0855C31.773 9.93481 32.0677 9.5468 32.318 9.22292C32.5715 8.89584 32.977 8.40522 33.2242 8.13265C33.4681 7.85688 33.8167 7.49452 34.0004 7.32778C34.1842 7.16103 34.4535 6.92374 34.5992 6.80509C34.7482 6.68323 34.9668 6.52611 35.0903 6.45235C35.2107 6.38181 35.4547 6.25354 35.629 6.17017C35.8032 6.08679 36.082 5.97776 36.2468 5.92325C36.4116 5.87194 36.6682 5.8014 36.8171 5.76933C37.0199 5.72444 37.2195 5.7084 37.6409 5.7084C38.1256 5.7084 38.227 5.71802 38.4488 5.78216C38.5882 5.82384 38.829 5.91684 38.9874 5.9938C39.1427 6.06755 39.4088 6.21506 39.5736 6.31767C39.7383 6.42349 40.0013 6.60627 40.1597 6.72492C40.315 6.84677 40.6635 7.16424 40.9297 7.4336C41.1958 7.69975 41.519 8.0589 41.6457 8.22565C41.7724 8.39239 41.9562 8.65855 42.0513 8.81888C42.1463 8.97601 42.3332 9.3095 42.4663 9.55642C42.5994 9.80333 42.7863 10.1785 42.8814 10.3902C42.9764 10.6018 43.1285 10.9609 43.2172 11.1918C43.3091 11.4195 43.4675 11.8684 43.5689 12.1859C43.74 12.7182 43.7685 12.7759 44.0727 13.1319L42.8212 13.1287L43.0018 12.9619C43.1285 12.8465 43.1824 12.7695 43.1855 12.715C43.1855 12.6701 43.1444 12.4328 43.0937 12.1859C43.0398 11.939 42.9416 11.5702 42.875 11.3682C42.8053 11.1662 42.6976 10.868 42.6311 10.7108C42.5677 10.5505 42.3808 10.1464 42.2192 9.81295C42.0544 9.47625 41.8612 9.11069 41.7883 8.99525C41.7154 8.87981 41.6045 8.70665 41.5412 8.61045C41.481 8.51425 41.1736 8.16793 40.8568 7.84726C40.5431 7.52338 40.1661 7.16103 40.0172 7.03918C39.8683 6.92053 39.6116 6.73454 39.4469 6.62231C39.2821 6.51328 39.0065 6.35295 38.8354 6.26637C38.6674 6.17979 38.4393 6.07717 38.3284 6.03869C38.1573 5.97776 38.0654 5.96814 37.625 5.96814C37.2512 5.96814 37.0484 5.98418 36.8488 6.02587C36.6999 6.05793 36.4654 6.12848 36.326 6.17979C36.1866 6.23109 35.9426 6.34012 35.7874 6.42029C35.629 6.50045 35.4864 6.57741 35.4705 6.59024C35.4515 6.60307 35.3818 6.64796 35.3121 6.68644C35.2424 6.72813 35.084 6.84357 34.9636 6.94298C34.84 7.04559 34.4218 7.45925 34.0289 7.86009C33.5188 8.38598 33.221 8.71948 32.9929 9.02732C32.8186 9.26461 32.4701 9.77127 32.223 10.1497C31.9727 10.528 31.6336 11.0636 31.4689 11.3361C31.3041 11.6087 31.0982 11.955 31.0095 12.1057C30.9239 12.2564 30.7338 12.6156 30.5849 12.9074C30.4392 13.1992 30.3219 13.4654 30.3283 13.4974C30.3346 13.5455 30.3885 13.5744 30.5279 13.6161C30.6324 13.6449 30.8954 13.7219 31.114 13.7828C31.3326 13.8437 31.6653 13.956 31.8586 14.0297C32.0487 14.1067 32.3909 14.2574 32.619 14.3632C32.844 14.4723 33.1861 14.655 33.3794 14.7641C33.5695 14.8763 33.9339 15.104 34.1874 15.2739C34.4408 15.4407 34.802 15.694 34.9953 15.8383C35.1854 15.9794 35.4864 16.2199 35.6606 16.3674C35.8349 16.5149 36.1771 16.8195 36.4211 17.044C36.665 17.2685 37.0357 17.6308 37.2448 17.8489C37.4539 18.0702 37.8025 18.4646 38.0211 18.7275C38.2397 18.9937 38.5407 19.3753 38.6896 19.5773C38.8417 19.7793 39.0983 20.1545 39.2631 20.411C39.4278 20.6676 39.6306 20.9914 39.7067 21.1325C39.7859 21.2736 39.957 21.6039 40.0869 21.8701C40.2168 22.133 40.3974 22.5306 40.4861 22.7519C40.5716 22.9732 40.711 23.3355 40.7902 23.56C40.8695 23.7877 40.9772 24.1244 41.031 24.3136C41.0817 24.506 41.1736 24.8747 41.2338 25.1409C41.294 25.4038 41.3574 25.7213 41.3764 25.8464C41.3954 25.9682 41.4239 26.2183 41.4588 26.725L41.595 26.8629C41.6711 26.9398 41.7629 27.0649 41.7978 27.1451C41.8548 27.2637 41.8612 27.3246 41.8453 27.4978C41.8358 27.6132 41.7851 27.8505 41.7313 28.0269C41.6806 28.2033 41.4936 28.7163 41.3162 29.1653C41.1388 29.6142 40.8821 30.2139 40.7459 30.496C40.6096 30.7782 40.3372 31.2753 40.1439 31.6023C39.9506 31.9294 39.6845 32.3463 39.5546 32.5323C39.4278 32.7183 39.2314 32.9844 39.1205 33.1255C39.0096 33.2666 38.7562 33.536 38.5565 33.722C38.3569 33.9079 38.0876 34.1517 37.9577 34.2671C37.8278 34.3825 37.5775 34.5813 37.4033 34.7128C37.229 34.8411 36.9502 35.0527 36.7854 35.1778C36.6207 35.3028 36.3767 35.4728 36.2468 35.553C36.1169 35.6331 35.9363 35.7325 35.8507 35.7774C35.762 35.8223 35.6575 35.8704 35.6131 35.8833C35.5688 35.8961 35.347 35.9891 35.122 36.0917C34.8939 36.1943 34.5739 36.3258 34.4091 36.3899C34.2444 36.4508 33.8515 36.5695 33.5378 36.6497C33.2242 36.7298 32.8249 36.8164 32.6507 36.8453C32.4764 36.8741 32.2388 36.919 32.1184 36.9447C32.0012 36.9703 31.7667 36.9896 31.5956 36.9896C31.4277 36.9896 31.0443 36.9607 30.7497 36.9254C30.4518 36.8934 30.0685 36.8421 29.8942 36.8164C29.7199 36.7907 29.3778 36.7234 29.1338 36.6689C28.8898 36.6176 28.554 36.5438 28.3892 36.5054C28.2245 36.4701 27.8823 36.3835 27.6288 36.313C27.3753 36.2424 26.9825 36.127 26.7575 36.0532C26.5294 35.9827 26.2094 35.8704 26.0446 35.8031C25.8799 35.7358 25.6359 35.6363 25.506 35.5818C25.3761 35.5241 25.0529 35.3766 24.7931 35.2548C24.5301 35.1297 24.1594 34.9501 23.9693 34.8571C23.7761 34.7609 23.4307 34.5717 23.1994 34.4338C22.9681 34.296 22.6481 34.0907 22.4897 33.9753C22.3313 33.8598 22.0144 33.6097 21.7863 33.4173C21.5582 33.2249 21.2921 32.994 21.197 32.9075C21.102 32.8209 20.8738 32.59 20.6932 32.3944C20.5126 32.1956 20.199 31.8332 19.993 31.5863C19.7902 31.3394 19.5494 31.0412 19.4607 30.9193C19.3435 30.7654 19.277 30.6371 19.2294 30.4704C19.1661 30.2555 19.1629 30.2171 19.2389 29.5982L19.0932 28.8767C19.014 28.479 18.9126 28.0333 18.8682 27.8826C18.8239 27.7319 18.7859 27.6068 18.7795 27.6036C18.7764 27.6004 18.6528 27.6325 18.5039 27.6774C18.355 27.7223 18.0064 27.8153 17.7276 27.8858C17.4488 27.9563 17.0052 28.1006 16.7454 28.2033C16.4825 28.3059 16.0421 28.4887 15.7632 28.6105C15.4844 28.7292 15.0567 28.9408 14.8127 29.0819C14.5688 29.2198 14.2836 29.3897 14.1791 29.4603C14.0745 29.5308 13.8907 29.6655 13.7735 29.7553C13.6404 29.8547 13.425 30.0792 13.219 30.3293C13.0321 30.5538 12.861 30.7397 12.8388 30.7365C12.8198 30.7365 12.7786 30.7045 12.7533 30.6628C12.7279 30.6243 12.7058 30.5666 12.7058 30.5345C12.7058 30.5057 12.842 30.2106 13.0131 29.8771C13.181 29.5469 13.3458 29.1973 13.3775 29.1011C13.4091 29.0049 13.4472 28.8382 13.4567 28.7324C13.4662 28.6201 13.4598 28.4662 13.4345 28.3636C13.4123 28.2674 13.3553 28.1006 13.3109 27.9948C13.2634 27.889 13.1398 27.687 13.0384 27.5491C12.9339 27.408 12.7976 27.2541 12.7374 27.2028C12.6709 27.1515 12.5537 27.097 12.4523 27.0777C12.3572 27.0585 12.1925 27.0489 12.0879 27.0585C11.9834 27.0681 11.8123 27.1066 11.7077 27.1451C11.6032 27.1803 11.3592 27.2894 11.1691 27.3824C10.9758 27.4786 10.7826 27.5651 10.7319 27.5748C10.678 27.5876 10.6305 27.578 10.5988 27.5459C10.5734 27.5202 10.5513 27.4786 10.5513 27.4561C10.5513 27.4369 10.5829 27.3856 10.621 27.3471C10.6622 27.3086 10.9568 27.1386 11.28 26.9687C11.6032 26.7987 11.8947 26.6352 11.9263 26.6063C11.958 26.5775 12.0119 26.4941 12.0436 26.4236C12.0752 26.353 12.1101 26.167 12.1228 26.0067C12.145 25.7373 12.1418 25.7053 12.0657 25.5417C12.0087 25.4231 11.9042 25.2884 11.7331 25.1248C11.5651 24.9645 11.4004 24.8427 10.9853 24.6278L10.5227 24.615C10.2059 24.6086 9.91758 24.6214 9.60075 24.6599C9.24906 24.7048 9.12549 24.708 9.06846 24.6791C9.03044 24.6599 8.99875 24.6182 8.99875 24.5861C8.99559 24.5573 9.02093 24.5092 9.05262 24.4803C9.0843 24.4514 9.23005 24.3873 9.37896 24.3392C9.52787 24.2911 9.71164 24.2174 9.79085 24.1757C9.87006 24.1372 9.96511 24.0731 10.0031 24.0378C10.0443 23.9993 10.114 23.9031 10.1615 23.8165C10.2408 23.6818 10.2503 23.6337 10.2503 23.3772C10.2503 23.1816 10.2281 23.0309 10.1901 22.9122C10.1425 22.7776 10.0823 22.691 9.93343 22.5435C9.8257 22.4377 9.61025 22.2613 9.455 22.149C9.29975 22.0368 9.07163 21.8893 8.95123 21.822C8.82766 21.7514 8.5932 21.6456 8.42845 21.5815C8.26369 21.5173 8.01656 21.4275 7.63635 21.3089V20.9882L7.88032 21.0043C8.01656 21.0139 8.26369 21.0363 8.42845 21.0524C8.5932 21.0684 9.07796 21.0973 9.50569 21.1165C9.93343 21.1357 10.4372 21.1646 10.6305 21.1838C10.8206 21.1999 11.3212 21.2576 11.7394 21.3089C12.1576 21.3602 12.8357 21.4692 13.2444 21.5494C13.6531 21.6328 14.2741 21.761 14.6226 21.838C14.9711 21.915 15.4622 22.0304 15.7157 22.0913C15.9692 22.1555 16.1783 22.2004 16.1815 22.1907C16.1878 22.1811 16.0769 21.9342 15.9375 21.636C15.7981 21.341 15.684 21.0812 15.684 21.0588C15.684 21.0395 15.665 21.0203 15.6428 21.0203C15.6238 21.0203 15.5541 21.0427 15.4939 21.0716C15.4084 21.1133 15.3672 21.1165 15.3102 21.0876C15.2721 21.0684 15.2214 21.0203 15.1961 20.9786C15.1708 20.9401 15.101 20.7125 15.0377 20.4752C14.9775 20.2379 14.8888 19.9396 14.8444 19.8178C14.7969 19.6927 14.7113 19.5003 14.6511 19.3849C14.5941 19.2695 14.385 18.9744 14.1917 18.7275C13.9985 18.4806 13.8274 18.2465 13.8115 18.2048C13.7957 18.1664 13.783 18.0413 13.783 17.9259C13.783 17.7527 13.802 17.6789 13.8907 17.4994C13.9478 17.3807 14.046 17.1466 14.1093 16.9799C14.1695 16.8131 14.2519 16.5374 14.2899 16.3706C14.3501 16.1141 14.3565 15.9986 14.347 15.6331C14.3343 15.2803 14.3185 15.1649 14.2583 15.0078C14.2171 14.902 14.1062 14.6711 14.0111 14.4947C13.9192 14.3183 13.8337 14.1388 13.8242 14.0939C13.8147 14.049 13.8305 13.9624 13.8559 13.9015C13.8812 13.8405 14.0016 13.6706 14.122 13.5295C14.2392 13.3852 14.3977 13.1543 14.6036 12.7631L14.6068 12.3847C14.6068 12.0897 14.5941 11.971 14.5434 11.8235C14.5086 11.7241 14.4198 11.5381 14.347 11.4163C14.2741 11.2912 14.0745 11.0379 13.9034 10.8455C13.7323 10.6563 13.5929 10.4864 13.5929 10.4703C13.5929 10.4511 13.6119 10.3998 13.6373 10.3485C13.6594 10.3004 13.7038 10.2523 13.7323 10.2362C13.7608 10.2234 13.8084 10.2138 13.8369 10.2138C13.8685 10.2138 14.0016 10.2651 14.1315 10.3292C14.2614 10.3934 14.4325 10.4896 14.5117 10.5441C14.5909 10.5986 14.7905 10.7589 14.9553 10.9032C15.1201 11.0475 15.3577 11.288 15.4813 11.4355C15.608 11.583 15.8203 11.862 15.9597 12.0576C16.0959 12.25 16.3145 12.5835 16.4476 12.7952C16.5807 13.0068 16.7835 13.3563 16.9007 13.5712C17.0147 13.7892 17.1098 13.972 17.1098 13.9816C17.1098 13.9913 17.1415 14.0458 17.1827 14.1003C17.2207 14.158 17.3221 14.3729 17.4076 14.5749C17.4932 14.7769 17.5787 14.9629 17.5977 14.9853C17.6262 15.0174 17.7023 14.9917 17.9653 14.8699C18.149 14.7833 18.4247 14.6615 18.5768 14.6037C18.7288 14.5428 18.8556 14.4851 18.8524 14.4691C18.8524 14.4562 18.7827 14.3344 18.6972 14.1965C18.5546 13.9688 18.5261 13.9432 18.3233 13.847C18.2061 13.7892 18.0888 13.7411 18.0666 13.7411C18.0476 13.7411 17.9938 13.6962 17.9494 13.6449C17.9051 13.5904 17.8702 13.5167 17.8702 13.475C17.867 13.4365 17.8924 13.3724 17.9241 13.3339C17.9621 13.289 18.092 13.2313 18.2979 13.1703C18.4722 13.119 18.7067 13.0357 18.8207 12.9908C18.9348 12.9427 19.1249 12.8465 19.2485 12.7727C19.3689 12.699 19.5336 12.5803 19.6096 12.5066C19.6857 12.436 19.8188 12.2693 19.9075 12.1378C19.9962 12.0063 20.0881 11.8332 20.1103 11.753C20.1324 11.6728 20.1514 11.5734 20.1514 11.5285C20.1514 11.4836 20.1388 11.3971 20.1198 11.3361C20.1039 11.2752 20.0184 11.1405 19.9297 11.0379C19.8441 10.9385 19.7712 10.8231 19.7712 10.7814C19.7681 10.7429 19.7966 10.6723 19.898 10.5345L20.3954 10.5537C20.7154 10.5665 20.9752 10.5633 21.1178 10.5377C21.2382 10.5184 21.4093 10.4671 21.498 10.4254C21.5835 10.3837 21.7483 10.2811 21.8592 10.1945C21.9733 10.108 22.119 9.96367 22.1824 9.87709C22.2489 9.7873 22.3376 9.63017 22.3788 9.52435C22.42 9.41853 22.477 9.22934 22.5055 9.10748C22.5341 8.98242 22.5499 8.81888 22.5404 8.73872C22.5341 8.65855 22.5087 8.54311 22.4897 8.48218C22.4675 8.42125 22.3756 8.26733 22.2838 8.14548C22.1855 8.01401 22.1127 7.88895 22.1127 7.84085C22.1127 7.79595 22.138 7.72541 22.1697 7.68372C22.2172 7.62279 22.2552 7.60996 22.3851 7.61317C22.4707 7.61317 22.664 7.64524 22.8129 7.68372C23.041 7.74144 23.1329 7.74785 23.399 7.73182C23.5733 7.71899 23.8077 7.68693 23.9218 7.66127C24.0359 7.63562 24.226 7.55866 24.3495 7.49452C24.4699 7.43039 24.6474 7.30212 24.7456 7.21234C24.8692 7.0969 24.9642 6.96542 25.0656 6.7634C25.148 6.60627 25.2494 6.36898 25.2937 6.23751C25.3349 6.10603 25.3888 5.89439 25.4109 5.77254C25.4426 5.59617 25.4426 5.48394 25.4141 5.25947C25.3919 5.09913 25.3507 4.86825 25.3159 4.7464C25.2842 4.62134 25.2462 4.4578 25.2335 4.37763C25.224 4.29426 25.2304 4.18202 25.2494 4.11148C25.2684 4.04734 25.3222 3.96397 25.3698 3.9287C25.4141 3.89342 25.4775 3.86456 25.5123 3.86456V3.86456ZM25.9622 6.14131C25.9179 6.30805 25.845 6.53893 25.8007 6.65437C25.7595 6.76981 25.6676 6.97184 25.601 7.10331C25.5345 7.23478 25.4173 7.41436 25.3412 7.50094C25.2652 7.58752 25.1036 7.73823 24.9832 7.83764C24.8596 7.93384 24.6822 8.05249 24.5872 8.10059C24.4921 8.14869 24.2925 8.22565 24.1436 8.27054C23.9947 8.31864 23.7729 8.37315 23.6525 8.39239C23.5289 8.41484 23.4275 8.43408 23.4212 8.44049C23.418 8.44691 23.4782 8.56876 23.5574 8.71306C23.6335 8.86057 23.7349 9.08824 23.7792 9.21972C23.8236 9.35119 23.887 9.56925 23.9218 9.70072C23.9567 9.83219 24.0137 10.1144 24.0485 10.326C24.0834 10.5377 24.1214 10.9128 24.1309 11.1598C24.1404 11.4067 24.1373 11.6664 24.1214 11.737C24.1056 11.8075 24.0802 11.862 24.0644 11.8588C24.0454 11.8524 24.0295 11.7305 24.0264 11.5862C24.02 11.4387 24.001 11.1758 23.982 10.9994C23.963 10.8231 23.9123 10.5056 23.8679 10.294C23.8236 10.0823 23.7444 9.7873 23.6937 9.63659C23.643 9.48587 23.5479 9.26461 23.4846 9.14276C23.418 9.0177 23.3262 8.8734 23.2723 8.82209L23.1804 8.72268C23.1392 9.09466 23.098 9.31271 23.0632 9.44419C23.0252 9.57566 22.9396 9.80333 22.8731 9.94763C22.7907 10.124 22.6925 10.2715 22.5816 10.3837C22.4929 10.4767 22.3091 10.6339 22.1792 10.7333C22.0493 10.8327 21.8624 10.9513 21.7673 10.9962C21.6723 11.0411 21.5012 11.102 21.3871 11.1309C21.273 11.163 21.1748 11.1918 21.1653 11.1982C21.1558 11.2047 21.216 11.2784 21.2984 11.3618C21.3839 11.4484 21.4695 11.5734 21.498 11.6568C21.5265 11.737 21.5772 11.9165 21.6121 12.0576C21.6437 12.1987 21.6723 12.3783 21.6723 12.4585C21.6723 12.5386 21.6596 12.6252 21.6406 12.6509C21.6247 12.6765 21.6057 12.6926 21.5994 12.6829C21.5931 12.6733 21.5487 12.529 21.5012 12.3623C21.4505 12.1955 21.3871 12.0063 21.3554 11.9454C21.3269 11.8845 21.2382 11.7786 21.1622 11.7113C21.0861 11.644 20.9657 11.5606 20.896 11.5285L20.7693 11.4644C20.7344 11.7754 20.6964 11.9518 20.6584 12.0576C20.6204 12.1635 20.5031 12.3783 20.3954 12.5354C20.2877 12.6926 20.1198 12.8914 20.0247 12.9812C19.9297 13.0677 19.6984 13.2345 19.5114 13.3531C19.3245 13.4686 19.1692 13.5744 19.1692 13.5872C19.1692 13.6032 19.2168 13.6513 19.2706 13.6994C19.3277 13.7476 19.4956 13.9047 19.6445 14.0522L19.9138 14.3151C20.6014 14.1708 21.0227 14.0939 21.2921 14.049C21.5614 14.0041 21.9891 13.9464 22.2426 13.9207C22.496 13.8919 23.1297 13.8309 23.6525 13.786C24.4192 13.7187 24.8692 13.6994 25.9813 13.6866L27.3595 13.6706L27.9868 13.4686C27.952 12.1153 27.9298 11.8043 27.8696 11.4163C27.8284 11.1341 27.7619 10.7525 27.727 10.5665C27.6922 10.3805 27.613 9.99894 27.5528 9.71675C27.4926 9.43457 27.3373 8.8285 27.2074 8.36995C27.0775 7.91139 26.9318 7.4336 26.8842 7.31174C26.8367 7.18668 26.729 6.94298 26.6498 6.76661C26.5674 6.59024 26.4185 6.29843 26.3203 6.11565C26.2221 5.93608 26.127 5.77895 26.1112 5.76933C26.0921 5.75971 26.0731 5.77254 26.0636 5.79498C26.0541 5.81743 26.0098 5.97456 25.9622 6.14131ZM15.1898 12.8753C15.1612 12.9715 15.0852 13.1607 15.0187 13.2922C14.9521 13.4237 14.8254 13.6321 14.7367 13.7572C14.648 13.879 14.5814 13.9848 14.5846 13.9848C14.5878 13.9881 14.7684 14.0875 14.987 14.2093C15.2912 14.3761 15.4432 14.4851 15.6365 14.6743C15.7759 14.809 15.9248 14.9821 15.966 15.0591C16.0389 15.1938 16.0294 15.1873 15.7759 14.9372C15.5605 14.7256 15.4527 14.6486 15.2088 14.53C15.044 14.4498 14.8634 14.3729 14.8127 14.36C14.7272 14.3408 14.7208 14.344 14.7462 14.4017C14.7589 14.4338 14.8254 14.6069 14.8919 14.7833C14.9585 14.9597 15.0282 15.197 15.0472 15.3124C15.0662 15.4278 15.082 15.6876 15.082 15.8896C15.082 16.0916 15.0599 16.3866 15.0345 16.547C15.0092 16.7041 14.9521 16.9638 14.9078 17.1242C14.8634 17.2813 14.7842 17.5058 14.7303 17.6212C14.6797 17.7367 14.648 17.8361 14.6575 17.8457C14.667 17.8553 14.8096 17.8713 14.9743 17.8842C15.1391 17.9002 15.3102 17.9259 15.3577 17.9451C15.4401 17.9772 15.4432 17.9836 15.383 18.006C15.3482 18.0188 15.1898 18.0381 15.0345 18.0509C14.8761 18.0637 14.7303 18.083 14.705 18.0958C14.6765 18.1118 14.7303 18.1984 14.9046 18.4133C15.0377 18.5768 15.1993 18.7949 15.2626 18.8943C15.326 18.9969 15.4147 19.1604 15.4591 19.2566L15.5415 19.433C15.5763 18.2978 15.6017 17.9675 15.6333 17.8136C15.6619 17.6821 15.7157 17.4705 15.7537 17.3487C15.7886 17.2236 15.8773 17.0087 15.947 16.8676C16.0167 16.7266 16.1466 16.4957 16.2353 16.3578C16.3431 16.1846 16.5046 16.0018 16.7264 15.7966L17.0528 15.4888C16.9926 15.29 16.9039 15.0591 16.8183 14.8474C16.7328 14.6358 16.5458 14.2382 16.4064 13.9656C16.267 13.693 16.023 13.2665 15.8615 13.0196C15.703 12.7727 15.5098 12.4873 15.4369 12.3847C15.364 12.2853 15.288 12.2019 15.2721 12.2019C15.2531 12.2019 15.2405 12.3045 15.2405 12.4488C15.2405 12.5867 15.2183 12.7791 15.1898 12.8753ZM27.8728 14.0522C27.7302 14.0778 27.3342 14.1676 26.9951 14.2542C26.6561 14.3376 26.2347 14.4594 26.0605 14.5268C25.8862 14.5909 25.487 14.7705 25.1733 14.9276C24.8596 15.0815 24.4541 15.3092 24.2703 15.4311C24.0866 15.5529 23.7951 15.7581 23.6208 15.8864C23.4339 16.0275 23.0822 16.345 22.7622 16.672C22.4137 17.0248 22.119 17.3615 21.9289 17.6212C21.7641 17.8425 21.5012 18.2241 21.3396 18.471C21.178 18.7179 20.9784 19.0354 20.8992 19.1765C20.82 19.3176 20.6964 19.5773 20.6235 19.7537C20.5538 19.93 20.4176 20.3052 20.3225 20.5874C20.2307 20.8696 20.0817 21.4115 19.9962 21.7899C19.9106 22.1683 19.8124 22.6461 19.7776 22.8481C19.7427 23.0501 19.6984 23.3451 19.6794 23.5055C19.6603 23.6626 19.6318 23.9961 19.6128 24.243C19.597 24.4899 19.5653 25.0896 19.5463 25.5738C19.5241 26.1542 19.4988 26.4684 19.4766 26.4973C19.4544 26.5198 19.4227 26.539 19.4069 26.5358C19.3847 26.5358 19.3847 26.058 19.4005 25.1184C19.4132 24.336 19.4322 23.6466 19.4354 23.5856C19.4417 23.5247 19.4576 23.2842 19.4671 23.0565C19.4797 22.8257 19.5083 22.4216 19.5368 22.1587C19.5621 21.8925 19.6192 21.4756 19.6603 21.2287C19.7015 20.9818 19.8441 20.4046 19.974 19.9461C20.1039 19.4875 20.256 18.9905 20.3099 18.8398C20.3637 18.689 20.4334 18.5223 20.4588 18.471C20.4841 18.4165 20.595 18.2305 20.6996 18.0541C20.8041 17.8778 20.9625 17.6405 21.0513 17.525C21.1368 17.4096 21.3871 17.1081 21.6057 16.8516C21.8243 16.5951 22.1602 16.2263 22.3535 16.0339C22.5436 15.8383 22.816 15.585 22.9555 15.4727C23.0949 15.3573 23.4022 15.1328 23.643 14.9757C23.8838 14.8154 24.1753 14.6262 24.2925 14.5524C24.4985 14.421 24.5048 14.4177 24.4034 14.4145C24.3495 14.4145 23.8838 14.4498 23.3737 14.4947C22.8667 14.5396 22.3281 14.5909 22.1792 14.6101C22.0303 14.6262 21.5804 14.6935 21.1812 14.7544C20.7788 14.8154 20.1895 14.918 19.8663 14.9757C19.5431 15.0366 19.1661 15.1232 19.0267 15.1713C18.8873 15.2162 18.6148 15.3316 18.4247 15.4278C18.2314 15.5208 18.0096 15.6395 17.9304 15.6876C17.8512 15.7389 17.6579 15.8672 17.5027 15.9762C17.3474 16.0852 17.1827 16.2135 17.1351 16.2648C17.0876 16.3129 16.9641 16.5181 16.8563 16.7137C16.7518 16.9125 16.625 17.2011 16.5743 17.3551C16.5205 17.5122 16.4413 17.8232 16.3969 18.0541C16.3304 18.394 16.3114 18.5704 16.3082 19.0001C16.305 19.4298 16.3177 19.6029 16.3747 19.914C16.4159 20.1256 16.4951 20.4912 16.5553 20.7221C16.6155 20.9562 16.7264 21.3121 16.7961 21.5077C16.869 21.7065 17.0243 22.0657 17.1415 22.303C17.2587 22.5403 17.4932 22.9956 17.6643 23.3131C17.8354 23.6305 18.092 24.1276 18.2346 24.4194C18.3772 24.7112 18.6148 25.2371 18.7574 25.5898C18.9031 25.9426 19.09 26.4171 19.1756 26.648C19.2611 26.8757 19.3625 27.1162 19.4037 27.1771C19.4417 27.2381 19.4861 27.3182 19.4988 27.3535C19.5114 27.3888 19.5399 27.5459 19.5653 27.7062C19.5906 27.8634 19.6318 28.1231 19.6603 28.2834C19.6889 28.4406 19.7617 28.7965 19.8219 29.0691C19.9201 29.5084 19.9297 29.5821 19.898 29.7104C19.879 29.7906 19.8473 29.9252 19.8314 30.015C19.8124 30.1176 19.8156 30.2203 19.8346 30.294C19.8536 30.3646 19.9708 30.5506 20.1134 30.7269C20.2497 30.9001 20.538 31.2496 20.7534 31.5061C20.9721 31.7627 21.2477 32.0705 21.3713 32.1956C21.4917 32.3174 21.8212 32.6124 22.1 32.8497C22.3788 33.0838 22.8065 33.4109 23.0505 33.5744C23.2945 33.7348 23.6937 33.9817 23.9377 34.1196C24.1816 34.2575 24.4319 34.3922 24.4921 34.4178C24.5523 34.4435 24.8438 34.5749 25.1416 34.7128C25.4363 34.8507 25.845 35.0303 26.0446 35.1137C26.2442 35.2002 26.5072 35.3029 26.6308 35.3445C26.7512 35.3862 27.0934 35.492 27.3912 35.5786C27.6858 35.662 28.0724 35.771 28.2466 35.8159C28.4209 35.8576 28.7124 35.9249 28.8962 35.9602C29.0799 35.9955 29.3556 36.0532 29.514 36.0885C29.6692 36.1238 30.0906 36.1911 30.4487 36.236C30.8225 36.2841 31.2788 36.3226 31.5259 36.3258C31.8903 36.329 32.0329 36.3162 32.4923 36.2264C32.7869 36.1687 33.2305 36.0692 33.4745 36.0051C33.7184 35.941 34.0099 35.8576 34.124 35.8159C34.238 35.7774 34.4947 35.6684 34.6943 35.5786C34.8939 35.4888 35.1664 35.3702 35.2963 35.3189C35.4262 35.2676 35.6416 35.165 35.7715 35.088C35.9014 35.0142 36.3007 34.7353 36.6555 34.4723C37.0104 34.2062 37.4951 33.815 37.7328 33.6033C37.9704 33.3885 38.2714 33.0999 38.4045 32.962C38.5375 32.8209 38.7276 32.59 38.8322 32.4489C38.9336 32.3046 39.0762 32.1058 39.1459 32.0064C39.2156 31.907 39.3296 31.721 39.3993 31.5959C39.4722 31.4677 39.6053 31.2464 39.6972 31.1053C39.789 30.9642 39.9886 30.589 40.1439 30.2716C40.296 29.9541 40.4671 29.5885 40.5209 29.4603C40.5748 29.3352 40.7174 28.9665 40.8378 28.6426C40.9582 28.3219 41.0944 27.9371 41.1388 27.7864C41.1831 27.6357 41.2211 27.4914 41.2211 27.4657C41.2243 27.4401 41.1419 27.3439 41.0437 27.2573C40.9455 27.1675 40.8504 27.0681 40.8314 27.0328C40.8156 26.9975 40.7871 26.6641 40.7712 26.2953C40.7459 25.6732 40.7332 25.5898 40.6318 25.205C40.5716 24.9741 40.4702 24.615 40.41 24.4033C40.353 24.1917 40.2421 23.8454 40.1661 23.6337C40.09 23.4221 39.9728 23.1175 39.9063 22.9603C39.8397 22.8 39.7035 22.4986 39.6053 22.2869C39.5071 22.0753 39.3296 21.729 39.2092 21.5173C39.0888 21.3057 38.8924 20.9722 38.7657 20.7798C38.6421 20.5842 38.4203 20.2603 38.2746 20.0583C38.1288 19.8563 37.8975 19.5452 37.7581 19.3689C37.6187 19.1925 37.0262 18.564 36.4401 17.9707C35.5498 17.0697 35.2995 16.8388 34.9161 16.547C34.6626 16.3578 34.2127 16.0403 33.918 15.8415C33.6202 15.6427 33.2654 15.415 33.1259 15.3349C32.9865 15.2579 32.6729 15.0911 32.4289 14.9693C32.1849 14.8474 31.8364 14.6807 31.6526 14.6005C31.4689 14.5172 31.1711 14.3985 30.9873 14.3376C30.8035 14.2767 30.4772 14.1901 30.2586 14.1452C30.0399 14.1003 29.815 14.0618 29.758 14.0618C29.6819 14.0618 29.6344 14.0875 29.5679 14.1676C29.5203 14.2221 29.4158 14.3825 29.3302 14.5204C29.2479 14.655 29.175 14.7673 29.1655 14.7673C29.156 14.7673 29.1528 14.5973 29.156 14.3889L29.1655 14.0137C28.8962 13.9816 28.7156 13.972 28.5952 13.9752C28.4716 13.9752 28.3195 13.9816 28.253 13.9913C28.1896 13.9977 28.0185 14.0265 27.8728 14.0522ZM10.3168 22.0529C10.4499 22.1811 10.5924 22.3447 10.6336 22.4152C10.6748 22.4858 10.7382 22.6301 10.773 22.7359C10.8206 22.8641 10.8491 23.0501 10.8618 23.3067C10.8808 23.653 10.8903 23.6818 10.9473 23.6818C10.9822 23.6818 11.0962 23.669 11.2008 23.6498C11.3053 23.6337 11.6602 23.5953 11.9929 23.5664C12.3224 23.5375 12.9022 23.5151 13.2761 23.5119C13.8622 23.5087 14.0365 23.5215 14.5117 23.5953C14.8159 23.6402 15.2975 23.7364 15.5795 23.8101C15.8646 23.8807 16.1434 23.9576 16.1973 23.9833L16.3019 24.0282C16.1656 24.0346 15.8456 23.9769 15.5003 23.9095C15.044 23.8165 14.7335 23.7716 14.3533 23.7492C14.008 23.7299 13.6689 23.7267 13.3553 23.7492C13.0923 23.7652 12.7438 23.8005 12.579 23.8293C12.4143 23.855 12.1481 23.9095 11.9929 23.9544C11.8345 23.9961 11.6539 24.0538 11.5873 24.0827C11.524 24.1083 11.4701 24.1372 11.4701 24.1468C11.4701 24.1564 11.6158 24.259 11.7933 24.3777C11.9802 24.506 12.1925 24.6823 12.3034 24.8042C12.4048 24.9196 12.541 25.112 12.6012 25.2371C12.7026 25.4423 12.7153 25.4904 12.7279 25.8143C12.7374 26.0067 12.7501 26.1863 12.7564 26.2055C12.766 26.2344 12.7945 26.2376 12.8547 26.2183C12.9054 26.2023 13.1715 26.1221 13.4503 26.042C13.7291 25.9586 14.1854 25.8431 14.4642 25.779C14.9141 25.6796 15.0408 25.6636 15.589 25.6443C15.9597 25.6347 16.2163 25.6379 16.229 25.6572C16.2385 25.6732 16.1593 25.6892 16.0389 25.6956C15.9217 25.6988 15.7062 25.7181 15.5573 25.7341C15.4084 25.7534 15.1866 25.7886 15.0662 25.8175C14.9426 25.8464 14.7145 25.9073 14.5593 25.9522C14.4008 25.9971 14.1379 26.0901 13.9731 26.1606C13.8084 26.2279 13.5517 26.3498 13.4028 26.4268C13.2539 26.5037 13.1145 26.5775 13.0923 26.5903C13.0638 26.6095 13.0955 26.6608 13.2 26.7763C13.2824 26.8629 13.4345 27.0521 13.539 27.1932C13.6404 27.3343 13.7735 27.5427 13.8305 27.6581C13.8876 27.7736 13.9478 27.9371 13.9699 28.0269C13.9889 28.1135 14.0175 28.3091 14.0365 28.4598C14.0523 28.6105 14.0745 28.7388 14.084 28.7484C14.0967 28.758 14.1632 28.7292 14.2361 28.6875C14.309 28.6458 14.5402 28.5207 14.7494 28.4085C14.9585 28.2995 15.4274 28.0782 15.7949 27.9211C16.1593 27.7639 16.587 27.5876 16.7454 27.5331C16.9007 27.4753 17.2017 27.3856 17.4108 27.3343C17.6199 27.2829 17.8607 27.2156 17.9494 27.19C18.035 27.1611 18.2061 27.1034 18.3296 27.0585C18.45 27.0136 18.5546 26.9751 18.5609 26.9719C18.5641 26.9687 18.5387 26.8821 18.5007 26.7763C18.4627 26.6705 18.3043 26.2664 18.1459 25.8784C17.9906 25.4904 17.8132 25.0703 17.753 24.9485C17.6928 24.8234 17.471 24.3937 17.2587 23.9897C17.0464 23.5888 16.8246 23.2008 16.7676 23.1335C16.6947 23.0405 16.6345 23.0052 16.5458 22.9892C16.4825 22.9796 16.0864 22.8866 15.6682 22.784C15.25 22.6782 14.4167 22.4858 13.8147 22.3543C13.2127 22.2228 12.6361 22.0945 12.5315 22.0657C12.4269 22.04 12.0974 21.9887 11.8028 21.9502C11.5049 21.915 11.1152 21.8637 10.9315 21.838C10.7477 21.8123 10.4847 21.7835 10.3421 21.7707C10.1615 21.7546 10.0823 21.761 10.0792 21.7867C10.0792 21.8059 10.1837 21.9278 10.3168 22.0529Z" fill="#131418"/>
<path d="M31.9631 25.221C31.9916 25.2178 32.0518 25.2435 32.093 25.2755C32.1342 25.3076 32.1659 25.3685 32.1691 25.4134C32.1691 25.4583 32.1311 25.5513 32.0867 25.6219C32.0423 25.6924 31.9124 25.8271 31.7984 25.9169C31.6811 26.0099 31.5829 26.0772 31.5734 26.0612C31.5671 26.0484 31.5734 25.981 31.5924 25.9105C31.6114 25.8399 31.64 25.7373 31.6621 25.686C31.6811 25.6315 31.7445 25.5064 31.8015 25.4038C31.8649 25.298 31.9314 25.221 31.9631 25.221Z" fill="#1A1C21"/>
<path d="M33.4174 25.0928C33.4491 25.0928 33.5061 25.1152 33.5442 25.1409C33.5853 25.1665 33.6487 25.2435 33.6899 25.3076C33.7311 25.375 33.7818 25.4808 33.8008 25.5417C33.823 25.6026 33.8293 25.6636 33.8166 25.6796C33.8008 25.6924 33.7279 25.6539 33.6487 25.5962C33.5695 25.5353 33.4459 25.4487 33.3699 25.4038C33.297 25.3557 33.2368 25.2948 33.2368 25.2691C33.2368 25.2435 33.2653 25.1922 33.3002 25.1569C33.335 25.1216 33.3889 25.0928 33.4174 25.0928Z" fill="#1A1C21"/>
<path d="M27.6732 19.0321C27.9552 19.0289 28.3449 19.045 28.5413 19.0674C28.7346 19.0867 29.0229 19.138 29.1813 19.1797C29.3398 19.2213 29.5742 19.3079 29.7041 19.3721C29.834 19.4394 30.021 19.5548 30.1192 19.6286C30.2206 19.7055 30.379 19.8434 30.474 19.9364C30.5691 20.0294 30.7022 20.1962 30.7687 20.3052C30.8352 20.4174 30.9335 20.613 30.9842 20.7445C31.0348 20.876 31.095 21.0652 31.1141 21.1646C31.1362 21.2672 31.1679 21.5302 31.1901 21.7514C31.2154 22.0336 31.2123 22.2292 31.1838 22.4088C31.1616 22.5499 31.1045 22.7872 31.0539 22.9379C31.0063 23.0886 30.8986 23.3387 30.8131 23.4926C30.7307 23.6498 30.5564 23.9095 30.4265 24.0763C30.2966 24.2398 30.0526 24.5059 29.8847 24.6663C29.7168 24.8266 29.4887 25.019 29.381 25.0928C29.2701 25.1665 29.0768 25.2852 28.9469 25.3557C28.817 25.4263 28.5889 25.5321 28.4399 25.5898C28.291 25.6443 28.0788 25.7149 27.971 25.7437C27.8633 25.7694 27.6985 25.8079 27.6098 25.8271C27.5211 25.8463 27.2518 25.8784 27.0142 25.8976C26.7354 25.9201 26.4724 25.9201 26.2728 25.8944C26.1049 25.8752 25.8514 25.8303 25.712 25.7918C25.5757 25.7566 25.3476 25.6732 25.2082 25.609C25.0688 25.5449 24.8724 25.4327 24.7741 25.3621C24.6759 25.2884 24.5238 25.1633 24.4383 25.0799C24.3527 24.9966 24.2038 24.833 24.1119 24.7112C24.0169 24.5893 23.8933 24.4097 23.8331 24.3103C23.7729 24.2077 23.6715 23.9961 23.6082 23.8325C23.5448 23.6722 23.4593 23.4189 23.4149 23.2682C23.3737 23.1175 23.323 22.8866 23.3008 22.7551C23.2818 22.6236 23.2628 22.2549 23.2628 21.9342C23.2628 21.3762 23.2692 21.3345 23.3705 21.0556C23.4276 20.8952 23.5733 20.6162 23.6905 20.4367C23.83 20.2282 23.9915 20.0423 24.1436 19.914C24.2704 19.8082 24.5302 19.6382 24.7203 19.542C24.9104 19.4426 25.2431 19.3111 25.4617 19.2502C25.7722 19.1604 25.9971 19.1251 26.5072 19.0867C26.8653 19.0578 27.3912 19.0354 27.6732 19.0321Z" fill="#0F1013"/>
<path d="M27.6193 19.4522C27.8696 19.4522 28.2118 19.465 28.3797 19.4843C28.5508 19.5003 28.8043 19.5452 28.9437 19.5837C29.0831 19.619 29.2891 19.6959 29.4031 19.7536C29.5172 19.8114 29.6788 19.9108 29.7675 19.9781C29.853 20.0454 29.9956 20.1641 30.078 20.2475C30.1635 20.3276 30.2776 20.4751 30.3378 20.5713C30.3948 20.6675 30.4804 20.8407 30.5247 20.9561C30.5691 21.0716 30.6229 21.2351 30.6388 21.3249C30.6578 21.4115 30.6863 21.6424 30.7053 21.838C30.7275 22.0849 30.7275 22.2581 30.7022 22.4152C30.6831 22.537 30.6293 22.7487 30.5881 22.8801C30.5437 23.0116 30.4487 23.2329 30.3758 23.3676C30.3029 23.5022 30.1509 23.7331 30.0368 23.8774C29.9227 24.0217 29.7105 24.2558 29.5615 24.3969C29.4126 24.5348 29.213 24.7048 29.118 24.7689C29.0229 24.8362 28.8518 24.9388 28.7378 24.9998C28.6237 25.0639 28.4241 25.1537 28.2942 25.205C28.1643 25.2563 27.9774 25.3172 27.8823 25.3397C27.7872 25.3653 27.6447 25.3974 27.5655 25.4166C27.4863 25.4327 27.2518 25.4583 27.0427 25.4776C26.7987 25.4968 26.5674 25.4936 26.3932 25.4744C26.2443 25.4583 26.0225 25.4166 25.9021 25.3846C25.7785 25.3525 25.5789 25.2787 25.4585 25.221C25.3349 25.1665 25.1638 25.0671 25.0783 25.0062C24.9896 24.942 24.8597 24.8298 24.7836 24.7593C24.7076 24.6855 24.5777 24.5412 24.4953 24.4354C24.4129 24.3296 24.3052 24.1692 24.2513 24.0827C24.2006 23.9929 24.1119 23.8069 24.0549 23.6658C23.9979 23.5247 23.9218 23.3002 23.887 23.1688C23.849 23.0373 23.8046 22.8353 23.7856 22.7198C23.7666 22.6044 23.7539 22.2805 23.7539 21.9983C23.7539 21.5109 23.7571 21.4724 23.8458 21.2287C23.8965 21.0876 24.0232 20.8439 24.1278 20.6868C24.2513 20.5008 24.3907 20.3373 24.5238 20.2282C24.6379 20.132 24.866 19.9845 25.0308 19.9011C25.1955 19.8146 25.487 19.6991 25.6803 19.6446C25.9528 19.5676 26.1524 19.5356 26.5991 19.5003C26.9128 19.4779 27.3722 19.4554 27.6193 19.4522Z" fill="white"/>
<path d="M36.402 18.6057C36.8076 18.6057 37.0262 18.6217 37.2955 18.6794C37.4888 18.7179 37.7327 18.7916 37.831 18.8365C37.9324 18.8846 38.1256 19.0289 38.265 19.1604C38.4013 19.2887 38.566 19.4875 38.6326 19.5997C38.6959 19.712 38.8258 20.0422 38.9241 20.3373C39.0508 20.7285 39.1047 20.9626 39.1237 21.2031C39.1395 21.3858 39.1363 21.6777 39.1205 21.8476C39.1015 22.0208 39.0635 22.2549 39.0349 22.3639C39.0064 22.4761 38.9399 22.6813 38.8892 22.816C38.8385 22.9539 38.7466 23.1527 38.6833 23.2585C38.6199 23.3676 38.4773 23.5504 38.3633 23.669C38.2524 23.7844 38.0623 23.9544 37.9419 24.041C37.8215 24.1276 37.6694 24.227 37.606 24.259C37.5395 24.2911 37.3177 24.3552 37.1117 24.3969C36.7981 24.461 36.665 24.4707 36.2658 24.4514C36.006 24.4386 35.6765 24.4097 35.5371 24.3905C35.3977 24.3681 35.1664 24.3296 35.027 24.3007C34.8875 24.2719 34.6689 24.2077 34.5454 24.1564C34.4186 24.1051 34.181 23.9704 34.0162 23.8614C33.8515 23.7524 33.5885 23.5311 33.4364 23.374C33.2115 23.1399 33.1259 23.0148 32.9929 22.7326C32.901 22.5402 32.7901 22.2516 32.7426 22.0881C32.676 21.8476 32.6602 21.7033 32.6633 21.3153C32.6633 20.8792 32.6728 20.8086 32.7679 20.5585C32.8249 20.4078 32.9295 20.1833 32.9992 20.0615C33.0689 19.9396 33.1956 19.7665 33.2748 19.6767C33.3572 19.5901 33.522 19.4394 33.6424 19.34C33.7628 19.2438 33.9275 19.138 34.0067 19.1027C34.0859 19.0706 34.276 19.0097 34.425 18.968C34.577 18.9231 34.7798 18.8654 34.8812 18.8365C34.9826 18.8077 35.2424 18.7435 35.4642 18.6986C35.7747 18.6313 35.9838 18.6089 36.402 18.6057Z" fill="#0F1013"/>
<path d="M36.3482 19.0033C36.703 19.0001 36.8931 19.0161 37.1244 19.0643C37.2955 19.0995 37.5046 19.1637 37.5933 19.2021C37.6789 19.2438 37.85 19.3689 37.9704 19.4843C38.0876 19.5966 38.2334 19.7697 38.2872 19.8659C38.3442 19.9621 38.4583 20.2507 38.5407 20.5073C38.6516 20.8472 38.6991 21.0492 38.7181 21.2608C38.7308 21.418 38.7276 21.6713 38.7118 21.822C38.6959 21.9727 38.6643 22.1747 38.6389 22.2709C38.6136 22.3671 38.5565 22.5435 38.5122 22.6621C38.4678 22.784 38.3886 22.9572 38.3316 23.0469C38.2777 23.1399 38.1541 23.3003 38.0559 23.4029C37.9577 23.5055 37.7929 23.653 37.6884 23.7268C37.5838 23.8037 37.4508 23.8903 37.3937 23.9192C37.3399 23.948 37.1466 23.9993 36.966 24.0378C36.6935 24.0923 36.5763 24.1019 36.2309 24.0827C36.0028 24.0731 35.7177 24.0506 35.5973 24.0314C35.4737 24.0122 35.2741 23.9769 35.1537 23.9544C35.0301 23.9288 34.8432 23.8711 34.7323 23.8262C34.6246 23.7813 34.4186 23.669 34.2729 23.5728C34.1303 23.4766 33.9053 23.2842 33.7691 23.1464C33.5758 22.9443 33.4998 22.8353 33.3857 22.5916C33.3065 22.4248 33.2083 22.1715 33.1671 22.0304C33.1101 21.822 33.0974 21.6969 33.0974 21.357C33.0974 20.9786 33.1069 20.9177 33.1893 20.6997C33.2368 20.5682 33.3287 20.3726 33.3921 20.2668C33.4523 20.1609 33.56 20.0102 33.6329 19.9333C33.7026 19.8563 33.8451 19.7248 33.9497 19.6415C34.0543 19.5581 34.1968 19.4651 34.2665 19.4362C34.3362 19.4042 34.501 19.3529 34.6309 19.3144C34.7608 19.2791 34.9382 19.2278 35.027 19.2021C35.1125 19.1765 35.3406 19.122 35.5339 19.0803C35.8032 19.0226 35.987 19.0065 36.3482 19.0033Z" fill="white"/>
<path d="M28.0438 23.7492C27.0014 24.0666 25.8735 23.4638 25.5186 22.3991C25.1638 21.3377 25.7182 20.2218 26.7575 19.9044C27.7999 19.5869 28.9278 20.1897 29.2827 21.2544C29.6375 22.3158 29.0831 23.4317 28.0438 23.7492Z" fill="#623F50"/>
<path d="M36.3736 22.6974C35.4706 22.9251 34.5549 22.3671 34.3205 21.4532C34.086 20.5393 34.6246 19.619 35.5276 19.3913C36.4274 19.1669 37.3431 19.7216 37.5776 20.6355C37.812 21.5526 37.2734 22.4729 36.3736 22.6974Z" fill="#623F50"/>
<path d="M37.8785 22.5435C38.6421 22.5467 39.0572 22.5627 39.1364 22.5852C39.2029 22.6076 39.279 22.6557 39.3043 22.6942C39.3297 22.7359 39.3518 22.8225 39.3518 22.8866C39.3518 22.9796 39.3265 23.0373 39.2473 23.1207C39.1902 23.1848 39.0667 23.265 38.9685 23.3067C38.7974 23.374 38.791 23.3804 38.8322 23.4414C38.8576 23.4766 38.8766 23.5536 38.8766 23.6081C38.8766 23.6851 38.8512 23.7364 38.7815 23.7941C38.7277 23.839 38.6294 23.8871 38.5597 23.9063C38.4837 23.9256 38.433 23.9576 38.433 23.9865C38.433 24.0121 38.3855 24.0731 38.3284 24.118C38.2746 24.1661 38.132 24.2526 38.0116 24.3104C37.8944 24.3713 37.6884 24.4515 37.5522 24.4899C37.3209 24.5605 37.2544 24.5637 36.326 24.5605C35.5054 24.5605 35.2615 24.5477 34.8369 24.4899C34.5581 24.4515 34.2793 24.4066 34.2191 24.3905C34.1589 24.3713 34.067 24.3264 34.0163 24.2847C33.9402 24.2238 33.9276 24.1917 33.9371 24.0923C33.9498 23.9865 33.9402 23.9705 33.8705 23.9576C33.8262 23.948 33.7248 23.9352 33.6393 23.9256C33.522 23.9095 33.4777 23.8871 33.4365 23.8165C33.408 23.7684 33.3826 23.6915 33.3794 23.6434C33.3794 23.5792 33.3636 23.5536 33.3224 23.5536C33.2939 23.5536 33.2337 23.5183 33.1893 23.4734C33.145 23.4285 33.1101 23.3548 33.1101 23.3035C33.107 23.2554 33.1323 23.1848 33.164 23.1463C33.2084 23.0886 33.3478 23.0405 33.7755 22.9283C34.0797 22.8481 34.5137 22.7519 34.7418 22.7166C34.9668 22.6814 35.3597 22.6365 35.6131 22.6204C35.8666 22.6012 36.2215 22.5723 36.4052 22.5595C36.589 22.5467 37.2512 22.5371 37.8785 22.5435Z" fill="#0F4D74"/>
<path d="M36.1992 18.5063C36.6079 18.5127 36.9026 18.5351 37.0293 18.5672C37.1402 18.5929 37.305 18.6506 37.3937 18.6891C37.4856 18.7308 37.6693 18.8526 37.7992 18.9584C37.9291 19.0675 38.1161 19.2534 38.2111 19.3721C38.3062 19.4939 38.49 19.7441 38.6135 19.9301C38.7403 20.116 38.8448 20.286 38.8448 20.3052C38.8448 20.3277 38.8258 20.3822 38.8036 20.4271C38.7846 20.472 38.7181 20.5297 38.661 20.5554C38.5787 20.5938 38.5026 20.597 38.2333 20.5714C38.0559 20.5522 37.6377 20.5393 37.3081 20.5393C36.9343 20.5393 36.4717 20.565 36.0883 20.6035C35.7493 20.6387 35.3121 20.69 35.122 20.7189C34.9287 20.7446 34.4946 20.8119 34.1556 20.8664C33.8166 20.9177 33.3635 20.9979 33.1481 21.0396C32.9358 21.0813 32.7393 21.1165 32.714 21.1165C32.6887 21.1165 32.6316 21.0813 32.5873 21.0364C32.5429 20.9915 32.5081 20.9241 32.5081 20.8824C32.5049 20.844 32.5334 20.7734 32.5714 20.7221C32.6253 20.6451 32.6316 20.6195 32.5999 20.5137C32.5809 20.4495 32.5714 20.3598 32.5809 20.3149C32.5904 20.27 32.7298 20.1032 32.8946 19.9429C33.0562 19.7825 33.3667 19.4811 33.5853 19.2727C33.9053 18.9713 34.032 18.8719 34.2348 18.7724C34.3742 18.7051 34.6024 18.6249 34.7418 18.5961C34.8812 18.5704 35.122 18.5319 35.2804 18.5191C35.4356 18.5031 35.8507 18.4967 36.1992 18.5063Z" fill="#0F4D74"/>
<path d="M28.1199 22.7102C28.4145 22.7166 28.8518 22.7519 29.0862 22.7872C29.3207 22.8224 29.6977 22.8801 29.9259 22.9154C30.1508 22.9507 30.4455 23.002 30.5754 23.0309C30.7053 23.0565 30.87 23.1046 30.9366 23.1335C31.0063 23.1623 31.0887 23.2201 31.1203 23.2649C31.152 23.3098 31.1805 23.3772 31.1774 23.4157C31.1774 23.4573 31.1425 23.5247 31.0982 23.5696C31.038 23.6305 30.9904 23.6465 30.9081 23.6401C30.8225 23.6369 30.7972 23.6465 30.7972 23.6882C30.7972 23.7203 30.7465 23.7844 30.6863 23.8325C30.588 23.9127 30.5754 23.9383 30.5754 24.227L30.3061 24.4418C30.0589 24.6406 30.0368 24.6695 30.0368 24.7721C30.0368 24.8651 30.0114 24.91 29.8878 25.0318C29.8023 25.1152 29.6344 25.2499 29.514 25.3333C29.3904 25.4166 29.1971 25.5353 29.0767 25.593C28.9595 25.6539 28.7884 25.7309 28.6965 25.7662C28.6078 25.8014 28.3955 25.8559 28.2308 25.8912C28.066 25.9265 27.7714 25.965 27.5813 25.9746C27.388 25.9874 27.0838 26.0067 26.9001 26.0227C26.7163 26.0355 26.4311 26.0355 26.2664 26.0227C26.1016 26.0099 25.807 25.9586 25.6169 25.9105C25.4078 25.8559 25.1289 25.7533 24.9198 25.6539C24.7202 25.5577 24.5016 25.4262 24.4129 25.3461C24.3242 25.2659 24.1816 25.1761 24.096 25.1473C24.0073 25.1152 23.8869 25.0639 23.8267 25.035C23.7412 24.9933 23.7063 24.9485 23.6715 24.8362C23.6398 24.7336 23.6366 24.6534 23.6556 24.5508C23.681 24.4226 23.6778 24.4033 23.5954 24.3199C23.5352 24.2526 23.5131 24.1981 23.5162 24.1275C23.5226 24.0762 23.5067 24.0121 23.4845 23.9929C23.4624 23.9704 23.4434 23.9031 23.4434 23.8421C23.4434 23.7684 23.4687 23.7075 23.5162 23.6626C23.5574 23.6273 23.6588 23.5664 23.7475 23.5279C23.8331 23.4926 24.077 23.4028 24.2861 23.3291C24.4953 23.2553 24.8026 23.1559 24.9673 23.1046C25.1321 23.0533 25.3761 22.9924 25.506 22.9635C25.6359 22.9379 25.8925 22.893 26.0763 22.8673C26.26 22.8417 26.5927 22.7968 26.8208 22.7679C27.0458 22.7423 27.3119 22.7134 27.407 22.707C27.5021 22.7006 27.8221 22.7006 28.1199 22.7102Z" fill="#104566"/>
<path d="M26.0796 18.6107C26.1406 18.6107 26.2175 18.6367 26.2496 18.6692C26.2817 18.6984 26.3074 18.7635 26.3042 18.8122C26.3042 18.8967 26.3138 18.9032 26.4068 18.887C26.4646 18.8805 26.6699 18.8545 26.8655 18.835C27.1061 18.809 27.5232 18.8025 28.1808 18.8187C29.0116 18.8382 29.1528 18.848 29.2234 18.8967C29.2651 18.926 29.31 18.978 29.3196 19.0073C29.3292 19.0463 29.3805 19.069 29.48 19.0821C29.5634 19.0918 29.7077 19.1503 29.8168 19.2153C29.9227 19.2771 30.0574 19.3779 30.1119 19.4332C30.1697 19.4917 30.2242 19.5697 30.2338 19.6087C30.2435 19.6575 30.2852 19.6932 30.3525 19.7127C30.4103 19.7323 30.5578 19.7745 30.683 19.8103C30.8049 19.846 30.9332 19.9013 30.962 19.9338C30.9909 19.9663 31.023 20.0281 31.0294 20.0736C31.039 20.1321 31.0871 20.1776 31.1994 20.2362C31.3438 20.3109 31.3566 20.3272 31.3662 20.4475C31.3727 20.545 31.3598 20.5938 31.3117 20.6425C31.2604 20.6945 31.2508 20.7303 31.27 20.8246C31.286 20.9091 31.2796 20.9611 31.2443 21.0001C31.2187 21.0327 31.1353 21.0847 31.0583 21.1172C30.946 21.1692 30.8947 21.1724 30.7375 21.1464C30.638 21.1302 30.3173 21.1009 30.0253 21.0814C29.7334 21.0652 29.0982 21.0294 28.6139 21.0066C28.1295 20.9871 27.3499 20.9676 26.8816 20.9676C26.1726 20.9709 25.9513 20.9806 25.5503 21.0424C25.284 21.0814 24.867 21.1529 24.62 21.1985C24.373 21.2472 23.9464 21.348 23.6737 21.426C23.401 21.504 23.1444 21.5691 23.1027 21.5691C23.0642 21.5691 22.9968 21.5333 22.9519 21.4878C22.8942 21.4293 22.8717 21.3708 22.8717 21.2765C22.8717 21.1594 22.891 21.1269 23.0642 20.9579C23.1732 20.8571 23.3721 20.6425 23.5069 20.4832C23.6416 20.3239 23.9207 20.0411 24.1228 19.8558C24.3249 19.6705 24.5911 19.4462 24.7162 19.3616C24.8381 19.2739 25.0563 19.1373 25.1974 19.0593C25.3386 18.978 25.5054 18.8837 25.5663 18.848C25.6273 18.8122 25.7428 18.7439 25.823 18.6952C25.9032 18.6497 26.0155 18.6107 26.0796 18.6107Z" fill="#104566"/>
<path d="M37.324 20.2539C37.7137 20.2507 37.9545 20.2667 38.1319 20.302C38.2713 20.3276 38.4995 20.3789 38.6389 20.4174C38.7783 20.4527 38.9177 20.504 38.9494 20.5329C38.9779 20.5649 39.0096 20.6226 39.0191 20.6675C39.0286 20.7124 39.0159 20.7798 38.9874 20.8183C38.962 20.8599 38.905 20.9048 38.8607 20.9241C38.8005 20.9465 38.7181 20.9401 38.5343 20.892C38.4012 20.8567 38.1319 20.8054 37.9418 20.7766C37.6408 20.7317 37.4888 20.7285 36.8329 20.7605C36.3006 20.7862 35.8919 20.8247 35.4705 20.8888C35.1378 20.9401 34.6245 21.0363 34.3299 21.0972C34.0321 21.1614 33.5758 21.2672 33.316 21.3281C33.053 21.3923 32.8091 21.4564 32.7679 21.4724C32.7299 21.4885 32.6823 21.5013 32.6665 21.5013C32.6475 21.5013 32.6411 21.4115 32.6538 21.2512C32.6665 21.1165 32.676 21.001 32.6792 20.9946C32.6792 20.9914 32.8534 20.9433 33.0625 20.8888C33.2716 20.8343 33.7501 20.7253 34.1239 20.6451C34.4978 20.5649 35.0903 20.4591 35.4388 20.4046C35.7873 20.3533 36.2277 20.2988 36.421 20.2859C36.6111 20.2699 37.0198 20.2571 37.324 20.2539Z" fill="#0F1013"/>
<path d="M28.1516 20.7381C28.5699 20.7478 29.0546 20.7734 29.2289 20.7894C29.4031 20.8087 29.7865 20.86 30.0843 20.9081C30.379 20.953 30.7085 21.0139 30.8131 21.0396C30.9271 21.0684 31.0253 21.1165 31.0602 21.1582C31.0919 21.1967 31.1172 21.264 31.1172 21.3089C31.1172 21.3538 31.0792 21.4244 31.0349 21.4693C30.962 21.5398 30.9335 21.5462 30.8194 21.527C30.7465 21.5142 30.5152 21.4757 30.3061 21.4404C30.097 21.4019 29.7833 21.3538 29.6091 21.3282C29.4348 21.3025 29.0768 21.264 28.817 21.2416C28.4906 21.2159 28.0091 21.2095 27.2803 21.2256C26.6973 21.2352 26.1334 21.2512 26.0288 21.2608C25.9243 21.2704 25.6803 21.3089 25.4902 21.3442C25.2969 21.3827 25.0118 21.4404 24.8565 21.4725C24.6981 21.5077 24.4795 21.559 24.3654 21.5879C24.2514 21.6136 23.982 21.6841 23.7634 21.745C23.5448 21.806 23.3484 21.8541 23.3262 21.8541C23.2977 21.8541 23.2945 21.8124 23.304 21.7001C23.3135 21.6168 23.3294 21.5045 23.3357 21.4532C23.3515 21.357 23.3579 21.357 23.849 21.2223C24.1246 21.1454 24.6189 21.0299 24.9516 20.9594C25.2811 20.8888 25.6961 20.8183 25.8704 20.7959C26.0447 20.7766 26.4565 20.751 26.7892 20.7381C27.1187 20.7253 27.7334 20.7253 28.1516 20.7381Z" fill="#0F1013"/>
<path d="M37.4508 22.0529C37.4761 22.0497 37.7549 22.0625 38.0686 22.0785C38.3823 22.0945 38.7466 22.1298 38.8765 22.1587C39.0064 22.1875 39.1173 22.2132 39.1237 22.2164C39.13 22.2196 39.111 22.3158 39.0856 22.4313C39.0571 22.5467 39.0223 22.6493 39.0096 22.6621C38.9969 22.6718 38.8955 22.6589 38.7815 22.6333C38.6674 22.6076 38.3474 22.5756 38.0686 22.5659C37.7644 22.5499 37.2702 22.5595 36.8329 22.582C36.4305 22.6044 36.0028 22.6365 35.8824 22.6589C35.7588 22.6782 35.4452 22.7327 35.1854 22.784C34.9224 22.8353 34.5675 22.8994 34.3933 22.9315C34.219 22.9604 33.8768 23.0341 33.1893 23.2073L33.1354 23.1335C33.1037 23.0918 33.0499 22.9924 33.015 22.9123C32.977 22.8321 32.9517 22.768 32.958 22.7647C32.9643 22.7647 33.1735 22.7102 33.4269 22.6461C33.6804 22.582 34.0923 22.4922 34.3458 22.4505C34.5992 22.4056 34.9414 22.3415 35.1062 22.3062C35.2709 22.2709 35.5434 22.2228 35.7082 22.194C35.8729 22.1683 36.2436 22.1298 36.5319 22.1106C36.8203 22.0913 37.1339 22.0721 37.229 22.0689C37.324 22.0625 37.4254 22.0561 37.4508 22.0529Z" fill="#0F1013"/>
<path d="M28.611 22.6076C29.8466 22.614 29.9607 22.6205 30.4803 22.7006C30.7845 22.7455 31.0443 22.784 31.057 22.784C31.0728 22.784 31.0633 22.8449 31.038 22.9187C31.0158 22.9956 30.9746 23.0983 30.9524 23.1464C30.9207 23.2073 30.8859 23.2329 30.8288 23.2329C30.7845 23.2329 30.6134 23.2105 30.4486 23.188C30.2839 23.1624 29.9607 23.1239 29.7358 23.1015C29.4506 23.0758 28.9595 23.0694 28.1357 23.0822C27.483 23.095 26.8747 23.1111 26.7892 23.1207C26.7004 23.1335 26.2886 23.1977 25.8703 23.2682C25.4521 23.3388 25.1036 23.4029 25.0941 23.4093C25.0846 23.4157 24.8565 23.467 24.5871 23.5215C24.3178 23.5793 24.02 23.653 23.9281 23.6851C23.8077 23.73 23.7475 23.7364 23.7 23.7139C23.6651 23.6947 23.6144 23.6338 23.5859 23.576C23.5479 23.4959 23.5416 23.4574 23.5701 23.3997C23.5891 23.3612 23.6366 23.3067 23.6746 23.281C23.7158 23.2554 23.8267 23.2105 23.9218 23.1848C24.0168 23.1592 24.3178 23.0854 24.5871 23.0245C24.8565 22.9636 25.2335 22.8866 25.4268 22.8513C25.6169 22.8161 25.9749 22.7583 26.2189 22.7167C26.4628 22.6782 26.805 22.6365 26.9793 22.6237C27.1535 22.6108 27.8886 22.6012 28.611 22.6076Z" fill="#0F1013"/>
<path d="M37.2512 18.1343C37.3019 18.1343 37.3621 18.1503 37.3906 18.1728C37.4191 18.1952 37.5965 18.3876 37.7867 18.5992C37.9768 18.8109 38.1985 19.0706 38.2777 19.1764C38.357 19.2823 38.5661 19.5837 38.7372 19.8499C38.9114 20.1128 39.073 20.3822 39.0952 20.4431C39.1269 20.52 39.13 20.581 39.111 20.6355C39.0952 20.6772 39.0445 20.7349 38.997 20.7638C38.9336 20.799 38.8924 20.8054 38.8259 20.7798C38.7625 20.7573 38.6738 20.6451 38.5185 20.395C38.3981 20.1994 38.1859 19.8755 38.0433 19.6735C37.9007 19.4715 37.6472 19.1604 37.4793 18.984C37.3146 18.8077 37.1466 18.6185 37.1086 18.5672C37.0674 18.5127 37.0357 18.4261 37.0389 18.3652C37.0389 18.3074 37.0643 18.2369 37.1023 18.1984C37.1371 18.1631 37.2037 18.1343 37.2512 18.1343Z" fill="#0F1013"/>
<path d="M32.7838 31.0604C32.806 31.0572 32.9359 31.0861 33.069 31.1246C33.2052 31.1598 33.3795 31.2208 33.4587 31.256C33.5379 31.2945 33.6266 31.3458 33.6583 31.3747C33.69 31.4035 33.7153 31.4516 33.7121 31.4805C33.7121 31.5126 33.69 31.5799 33.6646 31.6344C33.6393 31.6889 33.5696 31.7531 33.5062 31.7787C33.4143 31.8172 33.3604 31.8204 33.1798 31.7915C33.0499 31.7691 32.8408 31.7627 32.6349 31.7755C32.4511 31.7883 32.1723 31.8108 32.0171 31.83C31.8079 31.8557 31.7129 31.8557 31.659 31.83C31.621 31.8108 31.5671 31.7434 31.5418 31.6825C31.5164 31.6216 31.5006 31.5446 31.5101 31.5126C31.5164 31.4837 31.564 31.4388 31.6115 31.4132C31.659 31.3907 31.7984 31.3266 31.922 31.2753C32.0424 31.224 32.28 31.1534 32.4448 31.1214C32.6095 31.0893 32.7648 31.0604 32.7838 31.0604Z" fill="#131418"/>
<path d="M43.0081 13.1319H43.4612C43.8794 13.1319 43.9174 13.1383 43.9523 13.196C43.9744 13.2313 44.0061 13.2602 44.0251 13.2602C44.041 13.2634 44.1075 13.3083 44.174 13.366C44.2374 13.4237 44.3546 13.5231 44.4339 13.5872C44.5131 13.6546 44.5828 13.7091 44.5859 13.7091C44.5923 13.7059 44.6842 13.7925 44.7919 13.9015C44.9028 14.0073 44.9915 14.1003 44.9915 14.1099C44.9915 14.1196 45.0549 14.2029 45.1309 14.2927C45.2101 14.3857 45.3147 14.5428 45.3685 14.639C45.4224 14.7352 45.4889 14.8667 45.5174 14.9276C45.546 14.9886 45.5871 15.0751 45.6093 15.12C45.6315 15.1649 45.6664 15.2579 45.6885 15.3285C45.7107 15.399 45.7392 15.4696 45.7551 15.4888C45.7709 15.5048 45.8026 15.6331 45.8311 15.7678C45.8565 15.9057 45.8786 16.0692 45.8786 16.1301C45.8786 16.1911 45.8913 16.2424 45.9103 16.2424C45.9293 16.2424 45.942 16.3803 45.942 16.5951C45.942 16.7875 45.9325 16.9478 45.9167 16.9478C45.904 16.9478 45.8786 17.044 45.8565 17.1627C45.8374 17.2845 45.7741 17.4673 45.7202 17.5731C45.6664 17.679 45.6062 17.7944 45.584 17.8297C45.565 17.865 45.4382 17.9996 45.3083 18.1311C45.1784 18.2626 45.0485 18.3844 45.0232 18.4069C44.9978 18.4293 44.8679 18.5031 44.738 18.5736C44.6081 18.641 44.4497 18.7147 44.3895 18.7404C44.3293 18.766 44.2152 18.8077 44.136 18.8302C44.0568 18.8526 43.9554 18.8719 43.9047 18.8719C43.8572 18.8719 43.8129 18.8911 43.8097 18.9103C43.8002 18.9424 43.6798 18.9488 43.3091 18.9456C43.0398 18.9392 42.8053 18.9232 42.7895 18.9103C42.7705 18.8943 42.6501 18.8558 42.5202 18.8238C42.3903 18.7949 42.2762 18.7564 42.2667 18.7468C42.2572 18.734 42.1875 18.6987 42.1083 18.6666C42.0291 18.6346 41.8992 18.5672 41.8136 18.5159C41.7312 18.4646 41.6552 18.4229 41.6393 18.4229C41.6267 18.4229 41.5982 18.3941 41.576 18.3588C41.557 18.3235 41.5189 18.2947 41.4968 18.2947C41.4778 18.2914 41.3764 18.2113 41.2782 18.1087C41.1768 18.0093 41.0944 17.9163 41.0944 17.9002C41.0944 17.8874 41.0437 17.8008 40.9835 17.7078C40.9201 17.618 40.8694 17.5218 40.8726 17.4994C40.8726 17.4802 40.8568 17.4577 40.8377 17.4513C40.8187 17.4481 40.7775 17.3359 40.7427 17.2044C40.7047 17.044 40.6825 16.8484 40.6825 16.6111C40.6825 16.4155 40.7047 16.1333 40.73 15.9762C40.7554 15.8223 40.8061 15.6331 40.8409 15.5529C40.8758 15.4728 40.9043 15.399 40.9043 15.383C40.9043 15.3702 40.9708 15.2291 41.05 15.0719C41.1292 14.9116 41.2211 14.732 41.256 14.6711C41.2908 14.6102 41.3383 14.5492 41.3637 14.5332C41.389 14.5204 41.4112 14.4883 41.4112 14.4627C41.4112 14.437 41.538 14.2767 41.69 14.1099C41.8421 13.9432 41.991 13.8053 42.0227 13.8053C42.0512 13.8053 42.0861 13.7829 42.0988 13.7572C42.1146 13.7315 42.1526 13.6899 42.1906 13.6674C42.2255 13.6482 42.3269 13.5808 42.4124 13.5263C42.498 13.4686 42.5962 13.4013 42.631 13.3724C42.6659 13.3467 42.7071 13.3243 42.7261 13.3243C42.7419 13.3243 42.8148 13.2794 42.8845 13.2281L43.0081 13.1319Z" fill="#5E6477"/>
</g>
<defs>
<clipPath id="clip0_1_2482">
<rect width="50.9158" height="33.125" fill="white" transform="translate(7.63635 3.86456)"/>
</clipPath>
</defs>
</svg>
