<svg width="21" height="14" viewBox="0 0 21 14" fill="none" xmlns="http://www.w3.org/2000/svg">
<path d="M16.9592 0.5C16.9663 0.5 17.1009 0.606314 17.2569 0.733891C17.4128 0.854381 17.5404 0.981959 17.5404 1.0174C17.5404 1.04575 17.0938 1.41431 16.5481 1.84665C16.0023 2.279 15.5629 2.60503 15.5771 2.57668C15.5842 2.54124 15.896 2.06637 16.2646 1.51353C16.6331 0.960696 16.945 0.5 16.9592 0.5ZM4.03131 0.570876C4.06675 0.570876 4.39278 1.02449 4.74007 1.57732C5.09445 2.13725 5.39922 2.61921 5.42049 2.66173C5.43466 2.69717 4.99523 2.36405 3.42886 1.10245L3.6911 0.840206C3.83994 0.691366 3.98878 0.570876 4.03131 0.570876ZM10.3535 1.98841C11.1827 1.98841 11.2394 1.99549 11.3387 2.15142C11.4025 2.24356 11.445 2.47036 11.445 2.71843C11.445 3.0799 11.4237 3.1366 11.2536 3.26418C11.1402 3.34923 10.9843 3.41302 10.8992 3.40594C10.7575 3.40594 10.7362 3.44137 10.7362 3.93751L11.2465 4.02256C11.53 4.06509 12.0191 4.18558 12.3309 4.2848C12.6428 4.38403 13.1673 4.61792 13.4933 4.8022C13.8619 5.00774 14.3297 5.36213 14.6911 5.70942C15.0242 6.02128 15.4708 6.54576 15.6905 6.87888C15.9173 7.212 16.1937 7.73649 16.3142 8.04834C16.4347 8.3602 16.5764 8.81381 16.6331 9.06188C16.7182 9.47296 16.7395 9.50131 16.9237 9.50131C17.03 9.50131 17.1789 9.5651 17.2569 9.64306C17.3419 9.72812 17.3986 9.87696 17.3986 10.0329C17.3986 10.1888 17.3419 10.3377 17.2569 10.4227C17.1151 10.5645 17.0159 10.5645 10.3677 10.5645C3.76906 10.5715 3.60605 10.5645 3.43594 10.4298C3.30128 10.3306 3.25875 10.2243 3.25875 10.0329C3.25875 9.84152 3.30128 9.7352 3.43594 9.63598C3.53517 9.55801 3.68401 9.49422 3.77615 9.50131C3.91082 9.50131 3.94625 9.43752 4.04548 9.01935C4.10218 8.75711 4.24393 8.32476 4.34316 8.04834C4.44948 7.77193 4.69755 7.29705 4.88891 6.9852C5.09445 6.65208 5.48427 6.17012 5.84574 5.81573C6.22848 5.44009 6.66791 5.09279 7.01521 4.88725C7.32706 4.70297 7.78776 4.47617 8.04291 4.37694C8.29807 4.27772 8.75168 4.15014 9.05645 4.08635C9.35413 4.02256 9.68016 3.97295 9.77939 3.97295C9.93532 3.97295 9.95658 3.9446 9.95658 3.70362C9.95658 3.45555 9.94949 3.44137 9.67307 3.38467C9.49588 3.35632 9.36122 3.27836 9.31869 3.19331C9.28325 3.11534 9.24073 2.86727 9.23364 2.64756C9.22655 2.34279 9.2549 2.21521 9.35413 2.11598C9.46044 2.00967 9.60219 1.98841 10.3535 1.98841ZM20.1841 4.41947L20.3542 4.7455C20.4534 4.92269 20.5172 5.09988 20.4959 5.14241C20.4817 5.18493 19.9502 5.36212 19.3194 5.55349C18.6956 5.73777 18.1357 5.88661 18.0932 5.88661C18.0436 5.88661 18.4901 5.55349 19.0926 5.1495L20.1841 4.41947ZM0.877303 4.58248C0.941092 4.61084 1.41597 4.9156 1.92628 5.2629C2.44367 5.61019 2.86185 5.90787 2.84767 5.92914C2.84058 5.9504 2.32318 5.82282 1.69947 5.63854C1.07576 5.46135 0.537097 5.29125 0.508747 5.2629C0.480396 5.24164 0.522922 5.06445 0.607973 4.87308C0.728463 4.61792 0.792251 4.54705 0.877303 4.58248ZM3.51391 10.9968H10.318C17.023 10.9968 17.1151 10.9968 17.2569 11.1386C17.3703 11.252 17.3986 11.3724 17.3986 11.741C17.3986 12.1804 17.4057 12.2017 17.5758 12.2017C17.675 12.2017 17.8239 12.2371 17.9089 12.2797C18.0011 12.3293 18.0932 12.4002 18.1215 12.4427C18.1499 12.4852 18.1782 12.7333 18.1782 12.9955C18.1782 13.3853 18.1499 13.5058 18.0365 13.6192C17.8947 13.761 17.8026 13.761 2.72718 13.761L2.58543 13.5625C2.47911 13.4208 2.43659 13.2649 2.44367 12.9601C2.44367 12.627 2.47203 12.5206 2.61378 12.3789C2.73427 12.2513 2.86893 12.2017 3.29419 12.2017L3.25167 11.7906C3.21623 11.4433 3.2304 11.3583 3.36507 11.1882L3.51391 10.9968Z" fill="#5E6477"/>
<path d="M9.21077 4.75985C9.4801 4.75985 9.47302 4.76693 8.99814 4.93704C8.72173 5.02918 8.34608 5.21345 8.15471 5.34103C7.96335 5.46152 7.63023 5.7592 7.41051 5.9931C7.19079 6.23408 6.92146 6.61681 6.80806 6.84361C6.69466 7.07751 6.54582 7.50985 6.47494 7.80045C6.39698 8.09104 6.34028 8.55174 6.34028 9.32429L6.11347 9.26759C5.98589 9.23924 5.70948 9.21798 5.13538 9.21798L5.1779 8.98408C5.19916 8.86359 5.26295 8.56591 5.31965 8.33202C5.37635 8.09813 5.56772 7.60199 5.752 7.23343C6.02133 6.6806 6.17726 6.46088 6.65213 5.9931C7.04195 5.60328 7.37507 5.34812 7.68693 5.19219C7.94208 5.0717 8.32482 4.92286 8.53745 4.86616C8.75008 4.80946 9.05484 4.75985 9.21077 4.75985Z" fill="#0F1013"/>
</svg>
