<svg width="28" height="28" viewBox="0 0 28 28" fill="none" xmlns="http://www.w3.org/2000/svg">
<path d="M17.5 2.33331H6.99996C6.38112 2.33331 5.78763 2.57915 5.35004 3.01673C4.91246 3.45432 4.66663 4.04781 4.66663 4.66665V23.3333C4.66663 23.9522 4.91246 24.5456 5.35004 24.9832C5.78763 25.4208 6.38112 25.6666 6.99996 25.6666H21C21.6188 25.6666 22.2123 25.4208 22.6499 24.9832C23.0875 24.5456 23.3333 23.9522 23.3333 23.3333V8.16665L17.5 2.33331Z" stroke="white" stroke-width="2" stroke-linecap="round" stroke-linejoin="round"/>
<path d="M16.3334 2.33331V6.99998C16.3334 7.61882 16.5792 8.21231 17.0168 8.6499C17.4544 9.08748 18.0479 9.33331 18.6667 9.33331H23.3334" stroke="white" stroke-width="2" stroke-linecap="round" stroke-linejoin="round"/>
<path d="M11.6667 10.5H9.33337" stroke="white" stroke-width="2" stroke-linecap="round" stroke-linejoin="round"/>
<path d="M18.6667 15.1667H9.33337" stroke="white" stroke-width="2" stroke-linecap="round" stroke-linejoin="round"/>
<path d="M18.6667 19.8333H9.33337" stroke="white" stroke-width="2" stroke-linecap="round" stroke-linejoin="round"/>
</svg>
