<svg width="28" height="28" viewBox="0 0 28 28" fill="none" xmlns="http://www.w3.org/2000/svg">
<path fill-rule="evenodd" clip-rule="evenodd" d="M10.7139 0.0038859C11.0483 1.85007e-05 11.2272 0.0232229 11.55 0.100571C11.7756 0.158582 12.1256 0.274604 12.3278 0.363554C12.53 0.452505 12.8294 0.611068 12.9889 0.715488C13.1483 0.823775 13.3894 1.01328 13.5294 1.1409C13.6656 1.26853 13.8678 1.49284 13.9806 1.64366C14.0933 1.79063 14.2489 2.02654 14.3228 2.16576C14.4006 2.30499 14.5133 2.56411 14.5756 2.74587C14.6378 2.92764 14.7506 3.35306 14.8283 3.69339C14.9061 4.03372 14.98 4.39726 14.9917 4.50554C15.0072 4.60996 15.0267 4.72212 15.0422 4.74532C15.0578 4.77626 15.3261 4.83427 15.7111 4.89228C16.065 4.94643 16.6056 5.05085 16.9167 5.1282C17.2278 5.20554 17.7683 5.36024 18.1222 5.47626C18.5189 5.60775 18.8961 5.75858 19.1139 5.88234C19.3044 5.98676 19.6117 6.184 20.125 6.56687L20.5528 6.12985C20.7861 5.89007 21.1478 5.57295 21.35 5.42599C21.5522 5.27516 21.8167 5.10112 21.9333 5.03538C22.05 4.96963 22.3494 4.86134 22.5944 4.7956C22.9522 4.70278 23.1194 4.67958 23.4306 4.67958C23.6444 4.67958 23.94 4.70665 24.0917 4.73759C24.2394 4.76853 24.4417 4.83427 24.5389 4.88068C24.6322 4.93096 24.8072 5.05471 24.92 5.163C25.0367 5.26742 25.1689 5.44145 25.2233 5.54974C25.2739 5.65416 25.3361 5.8746 25.3633 6.03317C25.3983 6.26134 25.3983 6.3851 25.3633 6.62101C25.3361 6.78731 25.2739 7.00775 25.1222 7.30941L25.1883 7.6072C25.2233 7.7735 25.2506 8.04035 25.2506 8.19891C25.2467 8.36134 25.2156 8.59726 25.1728 8.74035C25.1106 8.94919 25.1028 9.01494 25.1417 9.12709C25.1689 9.20057 25.2117 9.38234 25.2389 9.53317C25.2778 9.74974 25.2778 9.86576 25.1922 10.4227L25.4528 10.9216L25.4567 11.521C25.4606 11.9348 25.4761 12.1553 25.5111 12.221C25.5383 12.2752 25.585 12.4028 25.6122 12.5111C25.6433 12.6155 25.6667 12.8823 25.6667 13.0989C25.6667 13.3928 25.6472 13.5591 25.5889 13.737C25.5461 13.8724 25.4606 14.0387 25.4022 14.116C25.3439 14.1895 25.2544 14.2901 25.2 14.3403C25.1456 14.3906 25.0017 14.495 24.8772 14.5724C24.7256 14.6691 24.6594 14.7348 24.6711 14.7735C24.6828 14.8044 24.7644 15.1873 24.85 15.6243C24.9394 16.0613 25.0133 16.4171 25.0172 16.421C25.0211 16.421 25.1222 16.4868 25.2389 16.5602C25.3672 16.6415 25.5033 16.7729 25.5772 16.8851C25.6433 16.9895 25.7289 17.1868 25.7639 17.326C25.8183 17.5387 25.8261 17.7205 25.8106 18.5249C25.795 19.3757 25.7833 19.5111 25.6939 19.8591C25.6394 20.0718 25.5578 20.3503 25.515 20.4779C25.4683 20.6055 25.4333 20.7138 25.4333 20.7177C25.4333 20.7254 25.5694 20.7448 25.7328 20.768C25.9 20.7912 26.1839 20.8453 26.3667 20.8917C26.5494 20.942 26.8022 21.0426 26.9267 21.116C27.055 21.1895 27.2456 21.3403 27.3544 21.4448C27.4633 21.5531 27.6189 21.7542 27.7006 21.8895C27.7783 22.0287 27.8833 22.2608 27.93 22.4116C27.9961 22.6359 28.0078 22.7403 27.9883 23.0111C27.9728 23.1928 27.9378 23.4365 27.9028 23.5525C27.8717 23.6685 27.7783 23.858 27.7006 23.9741C27.6189 24.0901 27.4283 24.2834 27.2806 24.4072C27.1289 24.5271 26.915 24.7553 26.7983 24.91C26.6856 25.0685 26.5106 25.258 26.4094 25.3354C26.3122 25.4127 26.1567 25.5133 26.0633 25.5558C25.9739 25.6022 25.7833 25.6718 25.6394 25.7066C25.4683 25.7531 25.3361 25.8149 25.2583 25.8884C25.1961 25.9503 25.0639 26.0508 24.9667 26.1089C24.8694 26.1707 24.7139 26.2326 24.6167 26.2481C24.4922 26.2674 24.3794 26.3254 24.2278 26.4453C24.1111 26.5381 23.9167 26.6619 23.8 26.7199C23.6017 26.8127 23.5394 26.8205 22.9833 26.8321C22.4233 26.8437 22.3494 26.8359 21.9333 26.7315C21.6883 26.6696 21.3889 26.5729 21.2722 26.5111C21.1556 26.4531 20.9456 26.3216 20.5528 26.0276L19.8139 26.368C19.4056 26.5575 18.8106 26.8166 18.4917 26.9442C18.1689 27.0718 17.6633 27.2575 17.3639 27.3542C17.0644 27.4547 16.5317 27.6017 16.1778 27.6868C15.8239 27.7718 15.3689 27.8724 15.1667 27.9111C14.8906 27.9613 14.5989 27.9768 14 27.9768C13.4011 27.9768 13.1094 27.9613 12.8333 27.9111C12.6311 27.8724 12.1839 27.7718 11.8417 27.6906C11.4994 27.6094 10.9667 27.4586 10.6556 27.3619C10.3444 27.2613 9.88167 27.095 9.625 26.9906C9.36833 26.8901 8.96389 26.7199 8.73055 26.6155C8.49333 26.5111 8.11222 26.3332 7.46667 26.0276L7.22167 26.2055C7.08944 26.3022 6.87556 26.4376 6.74722 26.4995C6.61889 26.5652 6.31167 26.6696 6.06667 26.7276C5.68167 26.8243 5.54556 26.8398 5.09444 26.8398C4.74444 26.8398 4.49556 26.8205 4.35556 26.7818C4.21944 26.7431 4.04056 26.6464 3.86944 26.5149C3.69056 26.3834 3.51556 26.2868 3.36389 26.2442C3.23556 26.2055 3.02167 26.0973 2.88556 26.0044C2.75333 25.9116 2.64444 25.8227 2.64444 25.8033C2.64444 25.7879 2.54333 25.7531 2.42278 25.726C2.29833 25.695 2.1 25.6293 1.98333 25.5752C1.86667 25.521 1.68778 25.4166 1.58667 25.3392C1.48944 25.258 1.34167 25.0995 1.25611 24.9834C1.17444 24.8674 1.015 24.6818 0.898333 24.5774C0.781667 24.4691 0.595 24.2912 0.478333 24.179C0.365556 24.0707 0.237222 23.9122 0.198333 23.831C0.155556 23.7536 0.0972222 23.5525 0.0622222 23.3862C0.0272222 23.2238 0 22.9879 0 22.8641C0 22.7442 0.0233333 22.5547 0.0505555 22.4503C0.0816667 22.342 0.143889 22.1796 0.194444 22.0829C0.241111 21.9862 0.357778 21.8006 0.451111 21.6652C0.556111 21.5182 0.711667 21.3597 0.863333 21.2553C0.999444 21.1624 1.16278 21.058 1.23278 21.0232C1.30278 20.9884 1.54 20.9188 1.75778 20.8685C1.97944 20.8144 2.24778 20.7641 2.36056 20.7525C2.47333 20.7409 2.56667 20.7254 2.56667 20.7177C2.56667 20.7138 2.52778 20.6133 2.485 20.4973C2.43833 20.3812 2.36056 20.1105 2.31 19.8978C2.25944 19.6851 2.20111 19.3177 2.17778 19.0857C2.15833 18.8497 2.13889 18.4553 2.13889 18.2039C2.13889 17.8868 2.16222 17.6431 2.22056 17.3917C2.28278 17.1171 2.33333 16.9934 2.44222 16.8426C2.52389 16.7343 2.67556 16.5989 2.98278 16.4171L3.15 15.5857C3.23944 15.1293 3.35611 14.6072 3.40667 14.4254C3.45722 14.2437 3.535 13.9652 3.58167 13.8066C3.62833 13.6481 3.73333 13.2884 3.81889 13.0138C3.90056 12.7354 4.02111 12.3448 4.07944 12.1437C4.14167 11.9426 4.21944 11.6989 4.32833 11.4282L4.2 11.1961C4.13 11.0685 4.04833 10.8945 4.01722 10.8094C3.98611 10.7243 3.90833 10.4459 3.84222 10.1906C3.75278 9.83482 3.72556 9.64145 3.72944 9.35913C3.72944 9.13482 3.76056 8.83317 3.815 8.58565C3.85778 8.36134 3.92778 8.09063 3.96667 7.98621C4.00167 7.87792 4.07944 7.69615 4.13778 7.58013C4.19222 7.46411 4.35167 7.22046 4.48778 7.03869C4.62389 6.85692 4.85333 6.57847 4.99722 6.41991C5.14111 6.26134 5.33944 6.02543 5.43667 5.89781C5.53 5.77018 5.67389 5.52654 5.75556 5.35637C5.83722 5.18621 6.06278 4.65637 6.26111 4.17681C6.45555 3.69726 6.69278 3.14808 6.78222 2.95858C6.87556 2.76521 7.07 2.42875 7.22167 2.20444C7.36944 1.98013 7.595 1.66687 7.72722 1.50831C7.85556 1.34974 8.10833 1.09063 8.28722 0.93593C8.46611 0.777367 8.72667 0.576262 8.86667 0.483444C9.00278 0.390626 9.22444 0.274604 9.35278 0.228195C9.48111 0.185654 9.74167 0.116041 9.93611 0.0773666C10.1383 0.0348251 10.465 0.0038859 10.7139 0.0038859ZM10.5078 3.17129C10.4611 3.21383 10.3794 3.32985 10.3289 3.43427C10.2783 3.53482 10.1694 3.81715 10.0917 4.06079C9.95167 4.48621 9.94778 4.52488 9.95944 4.93869C9.96722 5.1746 9.98278 5.37958 9.99444 5.39505C10.0022 5.40665 10.2239 5.35637 10.4806 5.28289C10.7372 5.21328 11.1456 5.10886 11.3944 5.05471C11.6394 5.00057 12.0011 4.93096 12.1956 4.90389L12.5494 4.85361C12.4678 4.55582 12.4017 4.35471 12.3511 4.21549C12.3006 4.07626 12.2072 3.85969 12.145 3.73593C12.0828 3.60831 11.9661 3.43427 11.8806 3.34919C11.795 3.26411 11.655 3.16355 11.5694 3.12875C11.4839 3.09007 11.305 3.04366 11.1767 3.02433C11.0133 3.00112 10.8928 3.00886 10.7683 3.0398C10.675 3.06687 10.5583 3.12488 10.5078 3.17129Z" fill="white"/>
<path d="M10.8306 1.10995C10.9589 1.12155 11.1961 1.16409 11.3556 1.20276C11.515 1.2453 11.8028 1.35359 11.9972 1.45028C12.1878 1.54309 12.4483 1.69779 12.5689 1.79448C12.6933 1.89116 12.8917 2.0884 13.0122 2.23149C13.1328 2.37845 13.2767 2.59116 13.3389 2.70718C13.3972 2.82321 13.4906 3.03978 13.545 3.19061C13.5994 3.33757 13.685 3.66243 13.7433 3.90608C13.7978 4.14972 13.8794 4.58674 13.9222 4.87293C13.9689 5.15912 14.0194 5.47624 14.0428 5.5768C14.0661 5.69669 14.1011 5.77017 14.1439 5.78177C14.1828 5.79337 14.5289 5.84751 14.9139 5.89779C15.2989 5.95193 15.8239 6.03315 16.0806 6.07569C16.3372 6.11823 16.8 6.23039 17.1111 6.32321C17.4222 6.41602 17.8422 6.55525 18.0444 6.6326C18.2467 6.70995 18.5539 6.84917 18.725 6.94972C18.8961 7.04641 19.1333 7.20497 19.25 7.30553C19.3667 7.40221 19.6311 7.63812 19.8333 7.82376C20.0356 8.01326 20.23 8.16022 20.2572 8.15249C20.2883 8.14475 20.4906 7.92431 20.7044 7.65746C20.9222 7.39448 21.2722 7.00387 21.4861 6.78729C21.7039 6.57459 21.9994 6.31934 22.1472 6.21879C22.2989 6.11823 22.4894 6.00995 22.575 5.97127C22.6606 5.93646 22.8161 5.88232 22.925 5.85525C23.03 5.82431 23.2867 5.80111 23.4889 5.80111C23.7767 5.80111 23.8933 5.82044 24.0217 5.87845C24.1189 5.92486 24.2044 5.99448 24.2278 6.05249C24.2472 6.10663 24.2667 6.23039 24.2667 6.33094C24.2667 6.43536 24.2317 6.58619 24.1967 6.67127C24.1578 6.75635 24.0606 6.92265 23.9789 7.03867C23.9011 7.1547 23.835 7.26298 23.8389 7.27845C23.8389 7.29779 23.905 7.43702 23.9828 7.58785C24.1111 7.83536 24.1306 7.90497 24.1306 8.14088C24.1306 8.39227 24.1189 8.43481 23.8 8.97238L23.87 9.11547C23.9089 9.19669 23.9828 9.33978 24.0333 9.43647C24.0839 9.53315 24.1344 9.68785 24.1422 9.78453C24.15 9.89669 24.1189 10.0746 24.0567 10.2873C23.9983 10.4691 23.9556 10.6392 23.9556 10.6624C23.9556 10.6895 24.0294 10.7939 24.115 10.8945C24.2044 10.9989 24.3017 11.1265 24.3289 11.1845C24.36 11.2464 24.3833 11.3586 24.3833 11.4359C24.3833 11.5171 24.3367 11.7298 24.1772 12.2403L24.3172 12.4337C24.3911 12.5381 24.4844 12.6928 24.5156 12.7702C24.5506 12.8514 24.5778 12.9945 24.5778 13.0912C24.5778 13.1878 24.5544 13.3232 24.5272 13.389C24.4922 13.4779 24.4222 13.5436 24.3017 13.6017C24.2083 13.6519 24.0761 13.6906 24.0139 13.6906C23.9478 13.6906 23.7728 13.6558 23.625 13.6133C23.4461 13.563 23.3411 13.5514 23.3139 13.5746C23.2867 13.6017 23.3411 13.9149 23.4772 14.5144C23.59 15.0055 23.7261 15.6359 23.7767 15.9144C23.8311 16.189 23.9089 16.5912 24.0139 17.1906L24.3056 17.3337C24.465 17.4149 24.6244 17.5077 24.6556 17.5387C24.7022 17.589 24.7139 17.732 24.71 18.3431C24.7061 18.753 24.6867 19.2171 24.6594 19.3757C24.6361 19.5343 24.5 19.9945 24.36 20.4006C24.22 20.8028 24.0683 21.2475 24.0217 21.379C23.9361 21.6265 23.9361 21.6265 24.0139 21.6768C24.0567 21.7077 24.2472 21.7425 24.4417 21.7541C24.6322 21.7657 25.0172 21.8044 25.2972 21.8354C25.5733 21.8663 25.9156 21.9243 26.0556 21.9669C26.1956 22.0055 26.3822 22.0945 26.4717 22.1564C26.5922 22.2453 26.6778 22.3536 26.7789 22.5547C26.915 22.8293 26.915 22.8448 26.8761 23.0575C26.8528 23.189 26.7944 23.3282 26.7439 23.3862C26.6933 23.4481 26.53 23.5564 26.3822 23.6337C26.2344 23.7149 26.0944 23.8 26.0711 23.8271C26.0478 23.858 26.0089 23.9547 25.9856 24.0436C25.9583 24.1365 25.8806 24.2718 25.8144 24.353C25.7444 24.4304 25.6161 24.5232 25.5306 24.5619C25.4256 24.6122 25.2817 24.6354 24.7722 24.6354L24.64 24.8365C24.57 24.9486 24.4767 25.0724 24.4378 25.1072C24.3989 25.142 24.2511 25.1884 24.1111 25.2155C23.9711 25.2387 23.8156 25.2657 23.7611 25.2735C23.7028 25.2851 23.6444 25.3354 23.6172 25.3972C23.59 25.4591 23.5122 25.5558 23.4461 25.6215C23.3294 25.7376 23.3256 25.7376 22.8744 25.7337C22.5594 25.7337 22.3494 25.7105 22.1861 25.6641C22.0578 25.6254 21.875 25.5558 21.7778 25.5094C21.6806 25.463 21.3889 25.2696 20.6461 24.732L20.2106 24.9409C19.9694 25.053 19.4406 25.3006 19.0361 25.4862C18.6278 25.6718 18.0444 25.9193 17.7333 26.0392C17.4222 26.1553 16.9128 26.3332 16.5939 26.4298C16.2789 26.5265 15.7656 26.6619 15.4467 26.7276C14.9917 26.8204 14.7428 26.8514 14.2139 26.8669C13.8017 26.8785 13.4206 26.8707 13.2028 26.8436C13.0083 26.8166 12.6156 26.7431 12.3278 26.6773C12.04 26.6116 11.5578 26.484 11.2583 26.3873C10.9589 26.2906 10.4339 26.105 10.0917 25.9696C9.74944 25.8343 9.12722 25.5635 8.71111 25.3702C8.295 25.1768 7.81667 24.9525 7.35 24.732L7.12833 24.8983C7.00389 24.9873 6.755 25.1613 6.57222 25.2851C6.38944 25.4088 6.13667 25.5519 6.00833 25.5983C5.86055 25.6564 5.60389 25.7028 5.29667 25.7298C4.82222 25.7762 4.82222 25.7762 4.64333 25.6796C4.51889 25.6099 4.45278 25.5403 4.41389 25.4359C4.37111 25.3276 4.32833 25.289 4.24667 25.2735C4.18833 25.2657 4.02889 25.2387 3.88889 25.2155C3.74889 25.1923 3.60111 25.1459 3.56222 25.1072C3.52333 25.0724 3.43 24.9486 3.22778 24.6354H2.91667C2.70667 24.6354 2.56278 24.616 2.47722 24.5735C2.41111 24.5387 2.30222 24.4652 2.24389 24.4072C2.18167 24.353 2.1 24.2409 2.05722 24.1597C2.01833 24.0823 1.98333 23.9934 1.98333 23.9663C1.98333 23.9431 1.94444 23.8812 1.89778 23.8387C1.84722 23.7923 1.73444 23.7188 1.64111 23.6724C1.55167 23.6298 1.41167 23.5254 1.32611 23.4442C1.21333 23.3359 1.16667 23.2508 1.13167 23.0961C1.09667 22.9376 1.10055 22.8602 1.13944 22.7287C1.17055 22.6398 1.24055 22.4928 1.295 22.4C1.35333 22.3111 1.46611 22.195 1.54389 22.1409C1.62555 22.0906 1.76944 22.021 1.86667 21.9862C1.96389 21.9514 2.20889 21.9011 2.41111 21.8702C2.61333 21.8431 3.02555 21.7967 3.325 21.7735C3.62444 21.7464 3.90833 21.7116 3.955 21.6923C4.025 21.6652 4.04055 21.6343 4.02889 21.5492C4.02111 21.4912 3.92389 21.205 3.815 20.9111C3.70611 20.621 3.55444 20.1801 3.48055 19.9365C3.37555 19.5923 3.33278 19.368 3.30167 18.958C3.27833 18.668 3.26278 18.2425 3.27055 18.0144C3.28222 17.7127 3.30167 17.5851 3.34444 17.5387C3.37555 17.5077 3.535 17.4149 3.98611 17.1906L4.03667 16.9006C4.06389 16.742 4.15722 16.2431 4.24278 15.7983C4.33222 15.3497 4.48 14.6884 4.57333 14.3287C4.66278 13.9652 4.83 13.3851 4.93889 13.0331C5.04778 12.6812 5.14111 12.3873 5.15278 12.3757C5.16055 12.3641 5.31611 12.4492 5.49111 12.5652C5.67 12.6812 5.90722 12.8166 6.01611 12.8669C6.12889 12.9171 6.35833 12.9906 6.52167 13.0331C6.68889 13.0757 6.99222 13.126 7.19444 13.1492C7.39667 13.1685 7.665 13.1878 7.78555 13.1878C7.91778 13.1878 8.23667 13.1298 8.54389 13.0525C8.83944 12.979 9.20111 12.8591 9.35278 12.7856C9.50055 12.7083 9.78055 12.5304 9.97111 12.3873C10.1656 12.2442 10.43 11.9928 10.5661 11.8343C10.6983 11.6757 10.885 11.4127 10.9744 11.2541C11.0639 11.0956 11.1806 10.8519 11.2311 10.7127C11.2817 10.5735 11.3672 10.2757 11.4178 10.0436C11.4683 9.81547 11.5111 9.52928 11.5111 9.40553C11.5111 9.28564 11.4839 9.02652 11.4528 8.83702C11.4217 8.64365 11.3517 8.32265 11.2972 8.12155C11.2428 7.92044 11.1339 7.64199 11.0561 7.50276C10.9822 7.36354 10.815 7.08895 10.6906 6.89171C10.5622 6.69834 10.4689 6.51271 10.4767 6.48564C10.4844 6.46243 10.5856 6.40829 10.6983 6.37348C10.815 6.33481 11.1106 6.25746 11.3556 6.19171C11.6006 6.12984 12.1878 6.02542 12.6583 5.95967C13.1289 5.89006 13.545 5.82818 13.58 5.81658C13.6189 5.80884 13.6617 5.7547 13.6772 5.69282C13.6889 5.63481 13.6889 5.38729 13.6772 5.14365C13.6617 4.81879 13.6228 4.59061 13.5372 4.29282C13.475 4.06851 13.3544 3.72044 13.2728 3.51934C13.1872 3.31823 13.0628 3.06298 12.9889 2.95856C12.9189 2.85028 12.7439 2.65691 12.6039 2.52155C12.4561 2.37845 12.2461 2.22763 12.1139 2.16575C11.9856 2.10387 11.7756 2.02652 11.6472 1.99558C11.5189 1.96077 11.2661 1.9337 11.0833 1.9337C10.9006 1.9337 10.6478 1.96077 10.5194 1.99558C10.3911 2.02652 10.1811 2.1116 10.0528 2.17735C9.92444 2.24696 9.74555 2.37459 9.65222 2.46354C9.555 2.56409 9.41889 2.77293 9.31389 2.98564C9.21278 3.19448 9.09222 3.53481 9.02611 3.79006C8.96389 4.0337 8.89 4.44365 8.86667 4.6989C8.83944 4.96188 8.82778 5.29061 8.84333 5.45304C8.85889 5.6116 8.92111 5.89392 8.98722 6.07956C9.04944 6.26906 9.17 6.55525 9.25555 6.71768C9.33722 6.88398 9.49667 7.15856 9.60166 7.32873C9.71055 7.4989 9.89722 7.82376 10.0139 8.05193C10.1306 8.28398 10.255 8.57017 10.2861 8.69006C10.3172 8.81381 10.3444 9.06906 10.3444 9.26243C10.3444 9.48287 10.3172 9.72265 10.2667 9.91989C10.2239 10.0901 10.115 10.3762 10.0256 10.558C9.905 10.8017 9.78444 10.968 9.56278 11.1961C9.345 11.4204 9.18166 11.5519 8.96 11.668C8.78889 11.7569 8.54778 11.8691 8.41944 11.9116C8.29111 11.958 8.04611 12.0044 7.875 12.016C7.70389 12.0276 7.40444 12.016 7.21389 11.9928C7.01944 11.9657 6.75111 11.9 6.61111 11.8459C6.47111 11.7917 6.26111 11.6834 6.14444 11.6099C6.02778 11.5365 5.80222 11.347 5.64667 11.1923C5.42889 10.968 5.32778 10.8287 5.19555 10.5464C5.09833 10.353 4.99333 10.0785 4.95833 9.93923C4.90778 9.74586 4.89611 9.57956 4.91167 9.20442C4.92333 8.86409 4.95444 8.65912 5.00889 8.50829C5.04778 8.39227 5.12944 8.20663 5.18389 8.10221C5.23444 7.99392 5.35889 7.80442 5.45611 7.6768C5.55333 7.54917 5.85278 7.17403 6.125 6.8453C6.58389 6.28453 6.64222 6.19558 7.02722 5.4337C7.25278 4.98508 7.54444 4.35083 7.66889 4.0221C7.79722 3.69337 8.00722 3.21381 8.13944 2.96243C8.27555 2.70332 8.48555 2.37459 8.62555 2.20829C8.75778 2.04586 8.98722 1.81381 9.13111 1.69006C9.275 1.5663 9.50444 1.40387 9.64444 1.33425C9.78444 1.26464 10.0022 1.18729 10.1306 1.16409C10.2589 1.14088 10.4144 1.11381 10.4806 1.10608C10.5428 1.09834 10.7022 1.10221 10.8306 1.10995Z" fill="#0F1013"/>
<path d="M23.1817 6.89558C23.3178 6.89945 23.3917 6.93039 23.4656 7C23.5239 7.05414 23.5744 7.15856 23.5861 7.23978C23.5978 7.32099 23.5822 7.44088 23.555 7.5105C23.5239 7.58011 23.45 7.68066 23.3878 7.73481C23.3178 7.79669 23.1583 7.86243 22.9833 7.90497C22.8239 7.94751 22.5789 8.02486 22.4389 8.08287C22.2989 8.13702 22.1083 8.23757 22.0111 8.30332C21.9139 8.36906 21.7233 8.55083 21.5872 8.70553C21.4511 8.86409 21.2994 9.03039 21.2489 9.0768C21.1983 9.12707 21.1206 9.16575 21.0778 9.16575C21.035 9.16575 20.9456 9.1232 20.8833 9.06906C20.8056 9.00332 20.7667 8.9337 20.7667 8.86409C20.7628 8.79448 20.8406 8.65525 20.9961 8.45028C21.1206 8.28011 21.3617 7.99392 21.5328 7.81216C21.7039 7.63039 21.9294 7.41768 22.0344 7.34033C22.1394 7.26298 22.33 7.14696 22.4583 7.08122C22.5867 7.01934 22.7617 6.94586 22.8472 6.92652C22.9328 6.90332 23.0844 6.89171 23.1817 6.89558ZM23.2556 8.70553C23.4033 8.70166 23.45 8.72486 23.5589 8.82928C23.6678 8.9337 23.6833 8.98011 23.6833 9.13481C23.6833 9.28564 23.6639 9.33978 23.5744 9.42486C23.485 9.51381 23.3956 9.54475 23.0572 9.60276C22.8356 9.64144 22.4194 9.74972 22.1356 9.84641C21.8556 9.93923 21.5911 10.0166 21.5522 10.0166C21.5172 10.0166 21.4472 9.9779 21.3967 9.92763C21.3461 9.88122 21.3111 9.79613 21.3111 9.73425C21.3111 9.65691 21.3656 9.58343 21.5328 9.43646C21.6572 9.32431 21.9294 9.15414 22.1472 9.04972C22.3611 8.9453 22.6567 8.82542 22.8083 8.78287C22.9561 8.74033 23.1583 8.70553 23.2556 8.70553ZM23.4306 10.3492C23.5278 10.3608 23.6133 10.3994 23.6561 10.4536C23.695 10.5 23.7261 10.6006 23.7261 10.674C23.7261 10.7823 23.695 10.8365 23.5667 10.9525C23.4383 11.0762 23.3761 11.1033 23.205 11.1188C23.0961 11.1265 22.82 11.1459 22.5944 11.1575C22.2056 11.1768 22.1822 11.1729 22.0967 11.0917C22.0422 11.0337 22.0072 10.9564 22.0111 10.8751C22.0111 10.8094 22.0383 10.7243 22.0694 10.6934C22.1006 10.6624 22.2794 10.589 22.4661 10.5348C22.6567 10.4768 22.9133 10.4072 23.0417 10.3801C23.17 10.353 23.345 10.3376 23.4306 10.3492ZM23.1972 11.8884C23.4928 11.9039 23.7533 11.9387 23.8272 11.9735C23.8972 12.0044 23.9711 12.0624 23.9944 12.105C24.0139 12.1475 24.0333 12.2326 24.0333 12.2983C24.0333 12.368 23.9944 12.453 23.9361 12.511C23.8739 12.5768 23.8 12.6077 23.7144 12.6077C23.6444 12.6077 23.3917 12.5536 23.1583 12.4878C22.8978 12.4182 22.6956 12.337 22.6411 12.2867C22.5944 12.2403 22.5517 12.1591 22.5478 12.1088C22.5439 12.0547 22.575 11.9812 22.6178 11.9387C22.6878 11.8691 22.7267 11.8652 23.1972 11.8884Z" fill="white"/>
<path d="M6.79389 16.3978C6.82111 16.3978 6.87944 16.4133 6.92222 16.4365C6.965 16.4558 7.01555 16.5331 7.03889 16.5989C7.05833 16.6685 7.09333 16.9083 7.11667 17.1326C7.13611 17.3569 7.15944 17.9022 7.175 19.163L7.05833 19.1591C6.99222 19.1552 6.73555 19.0547 6.48278 18.9348C6.21833 18.8072 6.02 18.6912 6.00833 18.6486C5.99666 18.6138 6.01222 18.4166 6.04722 18.2155C6.08222 18.0144 6.15611 17.6547 6.21833 17.4227C6.28055 17.1867 6.38555 16.8889 6.45166 16.7536C6.51778 16.6221 6.61111 16.4867 6.65778 16.4558C6.70833 16.4249 6.77055 16.3978 6.79389 16.3978ZM21.2333 16.4171C21.2878 16.4326 21.3578 16.4635 21.3889 16.4945C21.42 16.5215 21.5017 16.6646 21.5717 16.8077C21.6417 16.9547 21.7467 17.2834 21.8128 17.5387C21.875 17.7939 21.945 18.1343 21.9683 18.2928C21.9917 18.4514 22.0033 18.6138 21.9917 18.6486C21.98 18.6873 21.8361 18.784 21.6689 18.8652C21.5056 18.9464 21.2722 19.0547 21.1556 19.1011C21.0272 19.1552 20.9106 19.1785 20.8639 19.163C20.7861 19.1398 20.7861 19.1166 20.8172 18.3199C20.8328 17.8674 20.8639 17.3221 20.8833 17.1017C20.9067 16.8851 20.9417 16.6608 20.9611 16.5989C20.9844 16.5409 21.0311 16.4713 21.07 16.4442C21.1089 16.4171 21.175 16.4055 21.2333 16.4171ZM12.5417 16.9392C12.5611 16.9392 12.6078 16.9586 12.6467 16.9856C12.6817 17.0127 12.7361 17.1326 12.7711 17.2486C12.8022 17.3646 12.8722 17.7746 12.9267 18.1575C12.9811 18.5403 13.0511 19.0895 13.0822 19.3757C13.1172 19.6619 13.1444 20.0254 13.1444 20.1801C13.1444 20.4083 13.1328 20.4624 13.0744 20.4856C13.0394 20.5011 12.7711 20.4895 12.4833 20.4663C12.1917 20.4392 11.8922 20.4044 11.6628 20.3619V19.9751C11.6628 19.7624 11.69 19.4337 11.725 19.2403C11.7561 19.0508 11.8378 18.6757 11.9 18.4088C11.9661 18.142 12.0633 17.7862 12.1178 17.616C12.1722 17.4459 12.2422 17.2564 12.2772 17.1906C12.3083 17.1287 12.3706 17.0436 12.4172 17.0088C12.4639 16.9702 12.5183 16.9392 12.5417 16.9392ZM15.4661 16.9392C15.4933 16.9392 15.5517 16.9779 15.6022 17.0243C15.6489 17.0746 15.7267 17.1983 15.7733 17.3066C15.8239 17.4149 15.9406 17.8055 16.0339 18.1768C16.1311 18.5481 16.2361 19.0199 16.2711 19.221C16.3022 19.4221 16.3333 19.7663 16.3333 19.9829C16.3333 20.2033 16.3256 20.3812 16.3217 20.3812C16.3178 20.3812 16.065 20.4083 15.7656 20.4392C15.4661 20.4702 15.1394 20.4972 14.8517 20.4972V20.1956C14.8517 20.0331 14.8789 19.6619 14.9139 19.3757C14.945 19.0895 15.0267 18.4939 15.0889 18.0492C15.1511 17.6083 15.2211 17.2022 15.2444 17.1403C15.2678 17.0823 15.3144 17.0127 15.3494 16.9856C15.3844 16.9624 15.4389 16.9392 15.4661 16.9392ZM9.64055 17.3646C9.67555 17.3646 9.74167 17.3917 9.78833 17.4227C9.83889 17.4575 9.89722 17.5619 9.93222 17.6818C9.96333 17.7939 10.01 18.0917 10.0294 18.3392C10.0528 18.5906 10.0761 19.0663 10.08 19.395C10.0839 19.7547 10.0722 20.0061 10.0489 20.0293C10.0256 20.0564 9.81555 20.0177 8.84333 19.774L8.855 19.5652C8.86278 19.4492 8.90166 19.1746 8.94055 18.9503C8.98333 18.726 9.065 18.3856 9.11944 18.1961C9.17389 18.0028 9.25944 17.763 9.30611 17.6586C9.35278 17.5541 9.43444 17.4459 9.485 17.4188C9.53944 17.3917 9.60944 17.3685 9.64055 17.3646ZM18.3633 17.3646C18.3983 17.3646 18.4839 17.411 18.55 17.4691C18.6161 17.5309 18.7056 17.674 18.7483 17.7901C18.7911 17.9061 18.8806 18.2039 18.9428 18.4475C19.005 18.6912 19.0789 19.0818 19.11 19.3177C19.1411 19.5497 19.1528 19.7547 19.1372 19.7663C19.1256 19.7779 18.8572 19.8514 18.5461 19.9287C18.2389 20.0061 17.9667 20.0564 17.9472 20.0409C17.9278 20.0254 17.92 19.6425 17.9356 19.105C17.9472 18.6061 17.9783 18.084 18.0017 17.9448C18.025 17.8055 18.0639 17.6431 18.0911 17.5812C18.1183 17.5193 18.1728 17.4459 18.2156 17.4149C18.2583 17.3878 18.3244 17.3646 18.3633 17.3646Z" fill="white"/>
<path d="M4.53055 22.1641C4.55 22.1602 4.61222 22.1912 4.66667 22.2298C4.72111 22.2685 4.77555 22.3459 4.78722 22.3961C4.79889 22.4464 4.795 22.5276 4.77555 22.574C4.76 22.6243 4.57333 22.7751 4.34389 22.9221C4.12611 23.0652 3.71778 23.2972 3.44167 23.4442C3.07222 23.6337 2.87778 23.7149 2.72222 23.7343C2.52 23.7575 2.50055 23.7536 2.38 23.6376C2.30611 23.5641 2.25555 23.4751 2.25555 23.4171C2.25555 23.363 2.27889 23.274 2.31 23.2122C2.34111 23.1541 2.42278 23.0536 2.49667 22.9878C2.56667 22.9182 2.695 22.8293 2.78055 22.7867C2.86611 22.7442 3.25111 22.5972 3.63611 22.458C4.02111 22.3227 4.37111 22.1989 4.41389 22.1873C4.45667 22.1796 4.50722 22.168 4.53055 22.1641ZM23.4267 22.1602C23.45 22.1602 23.5744 22.195 23.7028 22.2337C23.8311 22.2724 24.1811 22.3923 24.4806 22.4967C24.78 22.605 25.1028 22.7287 25.2 22.779C25.2972 22.8254 25.4333 22.9182 25.5033 22.9878C25.5772 23.0536 25.6589 23.1541 25.69 23.216C25.7211 23.274 25.7444 23.363 25.7444 23.4171C25.7444 23.4751 25.6939 23.5641 25.6161 23.6376C25.4994 23.7497 25.4761 23.7575 25.2972 23.7381C25.1883 23.7265 24.9589 23.6492 24.7722 23.5602C24.5894 23.4713 24.2433 23.2818 24.0061 23.1387C23.765 22.9956 23.4889 22.8177 23.3917 22.7519C23.2439 22.6436 23.2167 22.605 23.2089 22.4812C23.205 22.3768 23.2244 22.3149 23.2944 22.2492C23.345 22.1989 23.4033 22.1602 23.4267 22.1602ZM5.25778 22.9337C5.32 22.9337 5.40167 22.9685 5.44444 23.011C5.48722 23.0536 5.52222 23.1232 5.52222 23.1657C5.52222 23.2083 5.50278 23.2779 5.48333 23.3204C5.46 23.363 5.27333 23.5409 5.06333 23.711C4.85722 23.8851 4.58889 24.0901 4.47222 24.1713C4.35555 24.2486 4.18444 24.353 4.09111 24.3994C4.00167 24.442 3.85389 24.4923 3.76055 24.5039C3.61667 24.5232 3.58555 24.5116 3.49222 24.4149C3.39111 24.3105 3.38722 24.2989 3.43389 24.1365C3.46111 24.0359 3.54667 23.889 3.63611 23.7923C3.72167 23.6956 3.89667 23.5564 4.025 23.4829C4.15333 23.4055 4.46055 23.2508 4.70555 23.1387C4.95055 23.0265 5.19944 22.9337 5.25778 22.9337ZM22.785 22.9414C22.8628 22.953 23.1778 23.0845 23.4889 23.2354C23.8 23.3862 24.1306 23.5757 24.2239 23.6569C24.3172 23.7381 24.4261 23.8464 24.465 23.9006C24.5 23.9547 24.5506 24.0746 24.57 24.1713C24.605 24.3337 24.6011 24.353 24.5039 24.4343C24.4183 24.5116 24.3756 24.5232 24.2394 24.5039C24.1461 24.4923 23.9983 24.442 23.9089 24.3994C23.8156 24.353 23.6444 24.2486 23.5278 24.1713C23.4111 24.0939 23.1428 23.8851 22.9367 23.711C22.7267 23.5409 22.54 23.363 22.5167 23.3204C22.4972 23.2779 22.4778 23.2122 22.4778 23.1735C22.4739 23.1348 22.5128 23.0613 22.5594 23.0149C22.6294 22.9453 22.6761 22.9298 22.785 22.9414ZM5.93833 23.5912C5.96555 23.5912 6.03944 23.6337 6.10555 23.6878C6.18722 23.7575 6.22222 23.8193 6.22222 23.9006C6.22222 23.9779 6.16778 24.0823 6.05889 24.2215C5.96944 24.3298 5.78278 24.5503 5.64278 24.7088C5.49889 24.8635 5.30833 25.053 5.21111 25.1265C5.07111 25.2309 5.00111 25.258 4.86111 25.2541C4.76389 25.2541 4.655 25.2348 4.61222 25.2077C4.55389 25.1652 4.54222 25.1227 4.55778 24.9641C4.56555 24.8481 4.61222 24.7088 4.66667 24.6199C4.72111 24.5348 4.95444 24.3028 5.19167 24.1017C5.425 23.9006 5.68167 23.7072 5.75555 23.6646C5.82944 23.626 5.915 23.595 5.93833 23.5912ZM22.1278 23.6182C22.1822 23.6298 22.3144 23.7072 22.4194 23.7884C22.5244 23.8696 22.7617 24.063 22.9406 24.2177C23.1194 24.3724 23.3061 24.5696 23.3567 24.6547C23.4072 24.7398 23.4539 24.8867 23.4578 24.9757C23.4656 25.1072 23.45 25.1575 23.3917 25.2C23.3489 25.2309 23.2361 25.2541 23.1389 25.258C22.995 25.258 22.9289 25.2309 22.7694 25.111C22.6644 25.0298 22.4039 24.763 22.1939 24.5193C21.9839 24.2757 21.805 24.032 21.7894 23.9779C21.7778 23.9238 21.7894 23.8387 21.8167 23.7845C21.84 23.7343 21.9022 23.6685 21.945 23.6414C21.9917 23.6144 22.0733 23.6028 22.1278 23.6182Z" fill="white"/>
</svg>
