<svg width="36" height="36" viewBox="0 0 36 36" fill="none" xmlns="http://www.w3.org/2000/svg">
<g clip-path="url(#clip0_1_2639)">
<rect x="0.5" y="0.5" width="35" height="35" rx="11.5" stroke="#1E2026"/>
<rect width="36" height="36" rx="12" fill="#1A1C21"/>
</g>
<path d="M26 16C24.9 16 24 16.9 24 18C24 19.1 24.9 20 26 20C27.1 20 28 19.1 28 18C28 16.9 27.1 16 26 16Z" fill="#5E6477"/>
<path d="M18 16C16.9 16 16 16.9 16 18C16 19.1 16.9 20 18 20C19.1 20 20 19.1 20 18C20 16.9 19.1 16 18 16Z" fill="#5E6477"/>
<path d="M10 16C8.9 16 8 16.9 8 18C8 19.1 8.9 20 10 20C11.1 20 12 19.1 12 18C12 16.9 11.1 16 10 16Z" fill="#5E6477"/>
<defs>
<clipPath id="clip0_1_2639">
<rect width="36" height="36" rx="12" fill="white"/>
</clipPath>
</defs>
</svg>
