<svg width="16" height="16" viewBox="0 0 16 16" fill="none" xmlns="http://www.w3.org/2000/svg">
<path d="M5 5.5H11M5 7.5H8M1.5 8.50667C1.5 9.57333 2.24867 10.5027 3.30467 10.658C4.05733 10.7687 4.818 10.8533 5.58667 10.9107C5.82 10.928 6.03333 11.0507 6.16333 11.2447L8 14L9.83667 11.2447C9.9011 11.1488 9.98652 11.069 10.0864 11.0111C10.1864 10.9532 10.2982 10.9189 10.4133 10.9107C11.1768 10.8537 11.9379 10.7694 12.6953 10.658C13.7513 10.5027 14.5 9.574 14.5 8.506V4.494C14.5 3.426 13.7513 2.49733 12.6953 2.342C11.1406 2.11381 9.57135 1.99951 8 2C6.40533 2 4.83733 2.11667 3.30467 2.342C2.24867 2.49733 1.5 3.42667 1.5 4.494V8.506V8.50667Z" stroke="#5E6477" stroke-linecap="round" stroke-linejoin="round"/>
</svg>
