<svg width="36" height="36" viewBox="0 0 36 36" fill="none" xmlns="http://www.w3.org/2000/svg">
<g clip-path="url(#clip0_1_2642)">
<rect x="0.5" y="0.5" width="35" height="35" rx="11.5" stroke="#1E2026"/>
<rect width="36" height="36" rx="12" fill="#1A1C21"/>
</g>
<path d="M18.6154 11C18.6128 11.0026 18.6108 11.8439 18.6115 12.8696L18.6128 14.7353C18.3079 14.7432 18.1505 14.7498 18.0666 14.7551C17.9828 14.7611 17.8657 14.7697 17.8066 14.775C17.7474 14.7803 17.6278 14.7942 17.54 14.8054C17.4522 14.8166 17.3189 14.8358 17.2442 14.8484C17.1688 14.861 17.0433 14.8848 16.9646 14.9006C16.8859 14.9165 16.7572 14.9449 16.6785 14.9635C16.5999 14.982 16.4913 15.0091 16.438 15.0236C16.384 15.0382 16.2962 15.0633 16.2429 15.0792C16.189 15.0951 16.0778 15.1301 15.9959 15.1572C15.9133 15.1844 15.795 15.2247 15.7325 15.2478C15.6701 15.2703 15.5589 15.314 15.4855 15.3437C15.412 15.3735 15.2937 15.4244 15.2222 15.4562C15.1506 15.4879 15.0512 15.5335 15.0011 15.5567C14.951 15.5805 14.8295 15.6407 14.7313 15.6916C14.6331 15.7419 14.4927 15.8173 14.4192 15.8583C14.3457 15.8999 14.2463 15.9575 14.1981 15.9866C14.15 16.0157 14.0753 16.062 14.0323 16.0891C13.9894 16.1162 13.9101 16.1678 13.8568 16.2035C13.8028 16.2392 13.7209 16.2954 13.6748 16.3278C13.6279 16.3609 13.5343 16.4297 13.4667 16.4813C13.3984 16.5328 13.2977 16.6115 13.2424 16.6565C13.1871 16.7015 13.102 16.7723 13.0538 16.8146C13.0057 16.8562 12.9238 16.9297 12.8718 16.9766C12.8198 17.0242 12.706 17.1347 12.6189 17.222C12.5318 17.3093 12.4089 17.4369 12.3458 17.5063C12.2827 17.5758 12.1943 17.675 12.1495 17.7279C12.1046 17.7808 12.0389 17.8595 12.0032 17.9032C11.9681 17.9468 11.903 18.0288 11.8601 18.085C11.8166 18.1412 11.7392 18.2457 11.6878 18.3165C11.6371 18.3873 11.5474 18.5169 11.4895 18.6042C11.4317 18.6915 11.3569 18.8072 11.3231 18.8621C11.2893 18.9163 11.2327 19.0122 11.1963 19.0737C11.1606 19.1352 11.1046 19.2338 11.0728 19.292C11.0403 19.3502 10.9798 19.4646 10.9375 19.5466C10.8953 19.6286 10.8374 19.7443 10.8088 19.8045C10.7809 19.8647 10.7399 19.952 10.7184 19.9996C10.697 20.0472 10.6567 20.1392 10.6287 20.2046C10.6008 20.2701 10.563 20.362 10.5442 20.4097C10.5253 20.4573 10.4902 20.5505 10.4662 20.618C10.4421 20.6854 10.4064 20.7913 10.3862 20.8528C10.366 20.9143 10.3381 21.0036 10.3238 21.0512C10.3101 21.0988 10.2848 21.1861 10.2685 21.2463C10.2523 21.3065 10.2289 21.3997 10.2159 21.4546C10.2029 21.5088 10.1827 21.6014 10.1703 21.6596C10.158 21.7178 10.1391 21.813 10.1287 21.8712C10.1177 21.9294 10.1021 22.0247 10.093 22.0829C10.0839 22.1411 10.0709 22.2363 10.0637 22.2945C10.0559 22.3527 10.0462 22.442 10.0403 22.4929C10.0351 22.5438 10.0267 22.645 10.0215 22.7178C10.0156 22.7905 10.0085 22.944 10.0039 23.0584C9.9987 23.2125 9.9987 23.3573 10.0039 23.6139C10.0078 23.805 10.0156 24.0266 10.0208 24.1066C10.0267 24.1866 10.0351 24.2997 10.0403 24.3579C10.0462 24.4161 10.0546 24.5021 10.0598 24.5497C10.0657 24.5973 10.0774 24.6892 10.0865 24.7547C10.0956 24.8202 10.1099 24.9181 10.119 24.973C10.1281 25.0272 10.1437 25.1198 10.1547 25.178C10.1658 25.2362 10.1872 25.3433 10.2029 25.4161C10.2185 25.4888 10.2432 25.596 10.2575 25.6542C10.2718 25.7124 10.2997 25.8182 10.3192 25.8889C10.3387 25.9597 10.3738 26.082 10.3979 26.1601C10.422 26.2381 10.4662 26.3737 10.4967 26.461C10.5273 26.5483 10.5806 26.6898 10.6144 26.7751C10.6482 26.8605 10.682 26.9464 10.6898 26.9649C10.697 26.9841 10.7048 27 10.7067 27C10.7087 27 10.7178 26.9544 10.7282 26.8995C10.7379 26.8439 10.7574 26.7434 10.7718 26.6759C10.7861 26.6085 10.8153 26.4808 10.8374 26.3916C10.8589 26.3023 10.8959 26.1627 10.9187 26.0807C10.9421 25.9987 10.987 25.8532 11.0182 25.7567C11.05 25.6601 11.0955 25.5278 11.1196 25.4624C11.1436 25.3969 11.1794 25.303 11.1989 25.254C11.2184 25.2051 11.2639 25.0966 11.3003 25.0126C11.3361 24.9287 11.4109 24.7699 11.4648 24.6588C11.5194 24.5477 11.5968 24.3976 11.6365 24.3248C11.6768 24.2521 11.7327 24.1522 11.762 24.1033C11.7906 24.0544 11.8393 23.9737 11.8692 23.9247C11.8998 23.8758 11.9538 23.7905 11.9895 23.7362C12.0259 23.6814 12.087 23.5907 12.1267 23.5345C12.1657 23.4783 12.2229 23.3976 12.2535 23.356C12.284 23.3143 12.3406 23.2383 12.3803 23.1873C12.4193 23.1364 12.4849 23.0531 12.5266 23.0022C12.5675 22.9512 12.639 22.8646 12.6858 22.8104C12.7327 22.7555 12.8178 22.6589 12.8757 22.5954C12.9336 22.5319 13.048 22.4129 13.1299 22.3302C13.2112 22.2482 13.3146 22.147 13.3594 22.1054C13.4043 22.0637 13.4771 21.9969 13.522 21.9566C13.5668 21.9162 13.6455 21.8481 13.6975 21.8044C13.7495 21.7608 13.8327 21.692 13.8828 21.6517C13.9329 21.612 14.0135 21.5492 14.0616 21.5128C14.1097 21.4771 14.2007 21.4103 14.2632 21.3653C14.3256 21.3203 14.4224 21.2529 14.4777 21.2158C14.533 21.1795 14.6181 21.1239 14.6663 21.0935C14.7144 21.0624 14.821 20.9969 14.9036 20.9473C14.9861 20.8977 15.1058 20.829 15.1701 20.7939C15.2345 20.7589 15.3398 20.7033 15.4042 20.6709C15.4686 20.6385 15.5856 20.5829 15.6643 20.5466C15.7429 20.5102 15.8879 20.448 15.9861 20.4077C16.0843 20.368 16.2319 20.3111 16.3144 20.282C16.397 20.2529 16.5108 20.2139 16.568 20.196C16.6252 20.1775 16.739 20.1438 16.8216 20.12C16.9041 20.0962 17.0413 20.0605 17.1271 20.04C17.213 20.0188 17.356 19.9871 17.4457 19.9692C17.5348 19.9514 17.6518 19.9295 17.7058 19.9203C17.7591 19.9117 17.8794 19.8938 17.9724 19.8812C18.0653 19.8687 18.1869 19.8535 18.2422 19.8482C18.2975 19.8422 18.3943 19.833 18.4567 19.8277C18.5192 19.8224 18.5803 19.8178 18.5913 19.8178H18.6128C18.6128 22.8408 18.6147 23.514 18.6193 23.5134C18.6225 23.512 20.2844 22.104 22.3122 20.3832L26 17.255C25.9759 17.2332 25.0891 16.4806 24.0124 15.5679C22.9358 14.6559 21.2824 13.2539 20.3377 12.453C19.393 11.6514 18.618 10.998 18.6154 11Z" fill="#5E6477"/>
<defs>
<clipPath id="clip0_1_2642">
<rect width="36" height="36" rx="12" fill="white"/>
</clipPath>
</defs>
</svg>
