<svg width="17" height="16" viewBox="0 0 17 16" fill="none" xmlns="http://www.w3.org/2000/svg">
<g clip-path="url(#clip0_77_3524)">
<path d="M7.05469 10.4499C6.99219 10.2077 6.86593 9.98662 6.68903 9.80972C6.51213 9.63282 6.29106 9.50656 6.04881 9.44406L1.75443 8.33669C1.68116 8.3159 1.61668 8.27177 1.57076 8.21101C1.52484 8.15024 1.5 8.07616 1.5 8C1.5 7.92384 1.52484 7.84976 1.57076 7.78899C1.61668 7.72823 1.68116 7.6841 1.75443 7.66331L6.04881 6.55524C6.29097 6.4928 6.51199 6.36664 6.68888 6.18987C6.86577 6.0131 6.99208 5.79218 7.05469 5.55006L8.16206 1.25567C8.18264 1.18211 8.22672 1.11731 8.28758 1.07115C8.34843 1.02499 8.42272 1 8.4991 1C8.57548 1 8.64976 1.02499 8.71062 1.07115C8.77147 1.11731 8.81556 1.18211 8.83614 1.25567L9.94281 5.55006C10.0053 5.7923 10.1316 6.01338 10.3085 6.19028C10.4854 6.36718 10.7064 6.49344 10.9487 6.55594L15.2431 7.66261C15.3169 7.68298 15.382 7.72701 15.4285 7.78796C15.4749 7.8489 15.5 7.92339 15.5 8C15.5 8.0766 15.4749 8.15109 15.4285 8.21204C15.382 8.27299 15.3169 8.31702 15.2431 8.33739L10.9487 9.44406C10.7064 9.50656 10.4854 9.63282 10.3085 9.80972C10.1316 9.98662 10.0053 10.2077 9.94281 10.4499L8.83544 14.7443C8.81486 14.8179 8.77077 14.8827 8.70992 14.9289C8.64907 14.975 8.57478 15 8.4984 15C8.42202 15 8.34773 14.975 8.28688 14.9289C8.22603 14.8827 8.18194 14.8179 8.16136 14.7443L7.05469 10.4499Z" stroke="#FFB742" stroke-width="2" stroke-linecap="round" stroke-linejoin="round"/>
<path d="M13.8333 2V4.66667" stroke="#FFB742" stroke-linecap="round" stroke-linejoin="round"/>
<path d="M15.1667 3.33333H12.5" stroke="#FFB742" stroke-linecap="round" stroke-linejoin="round"/>
<path d="M3.16669 11.3333V12.6667" stroke="#FFB742" stroke-linecap="round" stroke-linejoin="round"/>
<path d="M3.83333 12H2.5" stroke="#FFB742" stroke-linecap="round" stroke-linejoin="round"/>
<path d="M0.0100098 8C8.49529 8.26489 8.49529 -0.485283 8.49529 -0.485283C8.49529 8 16.9806 8 16.9806 8C8.49529 8 8.49529 16.4853 8.49529 16.4853C8.49529 8 0.0100098 8 0.0100098 8Z" fill="#FFB742"/>
</g>
<defs>
<clipPath id="clip0_77_3524">
<rect width="16" height="16" fill="white" transform="translate(0.5)"/>
</clipPath>
</defs>
</svg>
