<svg width="10" height="16" viewBox="0 0 10 16" fill="none" xmlns="http://www.w3.org/2000/svg">
<path fill-rule="evenodd" clip-rule="evenodd" d="M3.52941 16V13.3333H0V2.66667H3.52941V0H5.88235V2.66667H7.05882C7.60503 2.66667 8.14045 2.83905 8.60509 3.1645C9.06973 3.48995 9.44522 3.9556 9.68949 4.50929C9.93377 5.06297 10.0372 5.68281 9.98811 6.29935C9.93906 6.91589 9.73949 7.50477 9.41176 8C9.73949 8.49523 9.93906 9.08411 9.98811 9.70065C10.0372 10.3172 9.93377 10.937 9.68949 11.4907C9.44522 12.0444 9.06973 12.5101 8.60509 12.8355C8.14045 13.161 7.60503 13.3333 7.05882 13.3333H5.88235V16H3.52941ZM7.47477 9.5286C7.36445 9.40357 7.21483 9.33333 7.05882 9.33333H2.35294V10.6667H7.05882C7.21483 10.6667 7.36445 10.5964 7.47477 10.4714C7.58508 10.3464 7.64706 10.1768 7.64706 10C7.64706 9.82319 7.58508 9.65362 7.47477 9.5286ZM7.05882 5.33333H2.35294V6.66667H7.05882C7.21483 6.66667 7.36445 6.59643 7.47477 6.47141C7.58508 6.34638 7.64706 6.17681 7.64706 6C7.64706 5.82319 7.58508 5.65362 7.47477 5.52859C7.36445 5.40357 7.21483 5.33333 7.05882 5.33333Z" fill="#FFB742"/>
</svg>
