<svg width="16" height="16" viewBox="0 0 16 16" fill="none" xmlns="http://www.w3.org/2000/svg">
<g clip-path="url(#clip0_77_1368)">
<path d="M11.3333 9.33337L11.3333 1.33337" stroke="#5E6477" stroke-width="1.5" stroke-linecap="round" stroke-linejoin="round"/>
<path d="M6.00008 12.08L6.66675 9.33329L2.78008 9.33329C2.57309 9.33329 2.36894 9.2851 2.1838 9.19253C1.99866 9.09996 1.83761 8.96555 1.71341 8.79996C1.58922 8.63436 1.50528 8.44213 1.46825 8.23847C1.43123 8.03482 1.44212 7.82534 1.50008 7.62663L3.05341 2.29329C3.13419 2.01634 3.30262 1.77306 3.53341 1.59996C3.76421 1.42686 4.04492 1.33329 4.33341 1.33329L13.3334 1.33329C13.687 1.33329 14.0262 1.47377 14.2762 1.72382C14.5263 1.97387 14.6667 2.313 14.6667 2.66663L14.6667 7.99996C14.6667 8.35358 14.5263 8.69272 14.2762 8.94277C14.0262 9.19282 13.687 9.33329 13.3334 9.33329H11.4934C11.2454 9.33342 11.0023 9.40275 10.7914 9.53348C10.5806 9.66421 10.4105 9.85115 10.3001 10.0733L8.00008 14.6666C7.6857 14.6627 7.37626 14.5878 7.09488 14.4476C6.8135 14.3073 6.56746 14.1052 6.37514 13.8565C6.18283 13.6078 6.0492 13.3188 5.98426 13.0112C5.91931 12.7035 5.92472 12.3852 6.00008 12.08Z" stroke="#5E6477" stroke-width="1.5" stroke-linecap="round" stroke-linejoin="round"/>
</g>
<defs>
<clipPath id="clip0_77_1368">
<rect width="16" height="16" fill="white" transform="matrix(-1 0 0 -1 16 16)"/>
</clipPath>
</defs>
</svg>
