<svg width="16" height="16" viewBox="0 0 16 16" fill="none" xmlns="http://www.w3.org/2000/svg">
<g clip-path="url(#clip0_77_1359)">
<path d="M4.66675 6.66663V14.6666" stroke="#5E6477" stroke-width="1.5" stroke-linecap="round" stroke-linejoin="round"/>
<path d="M9.99992 3.92004L9.33325 6.66671H13.2199C13.4269 6.66671 13.6311 6.7149 13.8162 6.80747C14.0013 6.90004 14.1624 7.03445 14.2866 7.20004C14.4108 7.36564 14.4947 7.55787 14.5317 7.76153C14.5688 7.96518 14.5579 8.17466 14.4999 8.37337L12.9466 13.7067C12.8658 13.9837 12.6974 14.2269 12.4666 14.4C12.2358 14.5731 11.9551 14.6667 11.6666 14.6667H2.66659C2.31296 14.6667 1.97382 14.5262 1.72378 14.2762C1.47373 14.0261 1.33325 13.687 1.33325 13.3334V8.00004C1.33325 7.64642 1.47373 7.30728 1.72378 7.05723C1.97382 6.80718 2.31296 6.66671 2.66659 6.66671H4.50659C4.75464 6.66658 4.99774 6.59725 5.20856 6.46652C5.41937 6.33579 5.58953 6.14885 5.69992 5.92671L7.99992 1.33337C8.3143 1.33727 8.62374 1.41215 8.90512 1.55244C9.1865 1.69272 9.43254 1.89478 9.62486 2.14351C9.81717 2.39224 9.9508 2.68121 10.0157 2.98884C10.0807 3.29647 10.0753 3.6148 9.99992 3.92004Z" stroke="#5E6477" stroke-width="1.5" stroke-linecap="round" stroke-linejoin="round"/>
</g>
<defs>
<clipPath id="clip0_77_1359">
<rect width="16" height="16" fill="white"/>
</clipPath>
</defs>
</svg>
